<svg width="68" height="38" viewBox="0 0 68 38" fill="none" xmlns="http://www.w3.org/2000/svg">
<path d="M18.7619 6.75454V7.5467H14.8428V0.900879H15.7267V6.75454H18.7619Z" fill="#002767"/>
<path d="M19.4708 7.54682H20.3213V2.32689H19.4708V7.54682ZM19.4458 1.44301H20.338V0.550781H19.4458V1.44301Z" fill="#002767"/>
<path d="M26.2169 5.22025H22.1394C22.2478 6.29592 22.8898 6.93799 23.7821 6.93799C24.4825 6.93799 25.0412 6.53774 25.2496 5.9457H26.1669C25.9501 6.95467 25.0162 7.68012 23.7737 7.68012C22.2561 7.68012 21.2305 6.58777 21.2305 4.93674C21.2305 3.219 22.2728 2.19336 23.7737 2.19336C25.1746 2.19336 26.2086 3.20232 26.2086 4.53649V5.22025H26.2169ZM22.1477 4.46144H25.358C25.2663 3.56922 24.6659 2.93549 23.7821 2.93549C22.8648 2.93549 22.2478 3.60257 22.1477 4.46144Z" fill="#002767"/>
<path d="M28.2762 3.0689V6.07911C28.2762 6.54607 28.5014 6.81291 28.9016 6.81291H29.7855V7.55504H28.8099C27.901 7.55504 27.4257 7.09642 27.4257 6.1625V3.07724H26.4751V2.33511H27.4257V0.900879H28.2762V2.32677H29.7855V3.0689H28.2762Z" fill="#002767"/>
<path d="M30.436 5.62039V2.32666H31.2866V5.537C31.2866 6.50427 31.7619 6.9212 32.4123 6.9212C33.1711 6.9212 33.8298 6.35418 33.8298 5.27017V2.32666H34.6804V7.54659H33.8465V6.62935H33.8298C33.5713 7.12966 33.071 7.67167 32.2038 7.67167C31.1115 7.68001 30.436 6.87117 30.436 5.62039Z" fill="#002767"/>
<path d="M40.2671 2.32666L38.2742 7.54659H37.3903L35.4058 2.32666H36.348L37.8406 6.51261L39.3249 2.32666H40.2671Z" fill="#002767"/>
<path d="M40.4507 4.93674C40.4507 3.17731 41.6014 2.19336 43.044 2.19336C44.4865 2.19336 45.6373 3.17731 45.6373 4.93674C45.6373 6.6795 44.4865 7.68012 43.044 7.68012C41.6014 7.68012 40.4507 6.6795 40.4507 4.93674ZM44.7367 4.93674C44.7367 3.61091 43.9862 2.94383 43.0356 2.93549C42.085 2.92715 41.3346 3.61091 41.3346 4.93674C41.3346 6.25423 42.085 6.94633 43.0356 6.93799C43.9862 6.92965 44.7367 6.25423 44.7367 4.93674Z" fill="#002767"/>
<path d="M46.2378 5.82063H47.13C47.1884 6.47937 47.6804 6.93799 48.3725 6.93799C49.1396 6.93799 49.6149 6.51273 49.6149 6.02909C49.6149 5.47041 49.3231 5.21191 48.3725 5.21191H48.0222C47.0716 5.21191 46.3295 4.70326 46.3295 3.79436C46.3295 2.97718 47.0216 2.19336 48.3725 2.19336C49.6066 2.19336 50.3404 2.95217 50.4154 4.01116H49.5232C49.4648 3.31906 49.0646 2.92715 48.3725 2.92715C47.622 2.92715 47.2217 3.28571 47.2217 3.79436C47.2217 4.26966 47.4719 4.46144 48.3725 4.46978H48.631C49.815 4.46978 50.5071 5.08683 50.5071 6.02909C50.5071 6.84627 49.765 7.68012 48.3725 7.68012C47.1717 7.68012 46.3045 6.88796 46.2378 5.82063Z" fill="#002767"/>
<path d="M20.0293 16.9695H19.1288L18.8119 15.8105C18.4617 14.5514 18.1532 14.2262 17.3026 14.2262H15.7267V16.9695H14.8428V10.3237H17.4444C18.7702 10.3237 19.8292 11.0825 19.8292 12.2666C19.8292 13.0755 19.2956 13.6008 18.5034 13.8593C19.1371 14.1595 19.4206 14.7765 19.6541 15.5854L20.0293 16.9695ZM15.7267 13.4423H17.336C18.2783 13.4423 18.9036 13.0254 18.9036 12.2749C18.9036 11.5245 18.2783 11.1159 17.4361 11.1159H15.7267V13.4423Z" fill="#002767"/>
<path d="M25.3243 14.6514H21.2468C21.3552 15.7271 21.9973 16.3691 22.8895 16.3691C23.5899 16.3691 24.1486 15.9689 24.3571 15.3769H25.2743C25.0575 16.3858 24.1236 17.1113 22.8811 17.1113C21.3635 17.1113 20.3379 16.0189 20.3379 14.3679C20.3379 12.6502 21.3802 11.6245 22.8811 11.6245C24.282 11.6245 25.316 12.6335 25.316 13.9676V14.6514H25.3243ZM21.2551 13.8926H24.4655C24.3737 13.0004 23.7734 12.3666 22.8895 12.3666C21.9722 12.3583 21.3552 13.0337 21.2551 13.8926Z" fill="#002767"/>
<path d="M25.9331 15.2435H26.8253C26.8837 15.9022 27.3757 16.3608 28.0678 16.3608C28.8349 16.3608 29.3102 15.9356 29.3102 15.4519C29.3102 14.8933 29.0184 14.6348 28.0678 14.6348H27.7176C26.767 14.6348 26.0248 14.1261 26.0248 13.2172C26.0248 12.4 26.7169 11.6162 28.0678 11.6162C29.3019 11.6162 30.0357 12.375 30.1107 13.434H29.2185C29.1601 12.7419 28.7599 12.35 28.0678 12.35C27.3173 12.35 26.9171 12.7086 26.9171 13.2172C26.9171 13.6925 27.1672 13.8843 28.0678 13.8926H28.3263C29.5103 13.8926 30.2024 14.5097 30.2024 15.4519C30.2024 16.2691 29.4603 17.103 28.0678 17.103C26.8587 17.103 25.9998 16.3191 25.9331 15.2435Z" fill="#002767"/>
<path d="M31.9535 12.7252H31.9702C32.3371 12.0414 33.0041 11.6245 33.8463 11.6245C35.1471 11.6245 36.2478 12.5834 36.2478 14.3345C36.2478 16.1273 35.1471 17.1029 33.8463 17.1029C33.0041 17.1029 32.3371 16.686 31.9702 16.0022H31.9535C31.9702 16.219 31.9702 16.3942 31.9702 16.5943V18.5872H31.1196V11.7579H31.9702V12.1415C31.9785 12.3333 31.9785 12.5084 31.9535 12.7252ZM35.3639 14.3345C35.3639 13.1505 34.6635 12.35 33.6545 12.3583C32.6372 12.3666 31.9618 13.1755 31.9618 14.3262C31.9618 15.5186 32.6372 16.3608 33.6545 16.3691C34.6635 16.3775 35.3639 15.552 35.3639 14.3345Z" fill="#002767"/>
<path d="M37.1152 15.0432V11.7578H37.9658V14.9682C37.9658 15.9354 38.4411 16.3524 39.0915 16.3524C39.8503 16.3524 40.509 15.7853 40.509 14.7013V11.7578H41.3596V16.9777H40.5257V16.0688H40.509C40.2505 16.5692 39.7502 17.1112 38.883 17.1112C37.7907 17.1028 37.1152 16.3023 37.1152 15.0432Z" fill="#002767"/>
<path d="M43.4359 12.7251H43.4526C43.8195 12.0413 44.4866 11.6244 45.3288 11.6244C46.6296 11.6244 47.7303 12.5833 47.7303 14.3344C47.7303 16.1272 46.6296 17.1028 45.3288 17.1028C44.4866 17.1028 43.8195 16.6859 43.4526 16.0021H43.4359C43.4526 16.2189 43.4526 16.394 43.4526 16.5942V16.9777H42.6021V9.38965H43.4526V12.1414C43.4609 12.3332 43.4609 12.5083 43.4359 12.7251ZM46.8464 14.3344C46.8464 13.1503 46.1459 12.3498 45.137 12.3582C44.1197 12.3665 43.4442 13.1753 43.4442 14.3261C43.4442 15.5185 44.1197 16.3607 45.137 16.369C46.1459 16.3773 46.8464 15.5518 46.8464 14.3344Z" fill="#002767"/>
<path d="M49.5063 9.38135H48.6558V16.9694H49.5063V9.38135Z" fill="#002767"/>
<path d="M50.7153 9.98145H51.6076V10.8737H50.7153V9.98145ZM50.7404 11.7576H51.5909V16.9775H50.7404V11.7576Z" fill="#002767"/>
<path d="M56.0522 16.9694L54.4179 14.693L53.6674 15.5685V16.9694H52.8169V9.38135H53.6674V14.4095L55.8354 11.7578H56.9528L54.9766 14.0509L57.0862 16.9694H56.0522Z" fill="#002767"/>
<path d="M57.0107 14.3679C57.0107 12.6085 58.1615 11.6245 59.604 11.6245C61.0466 11.6245 62.1973 12.6085 62.1973 14.3679C62.1973 16.1106 61.0466 17.1113 59.604 17.1113C58.1615 17.1029 57.0107 16.1106 57.0107 14.3679ZM61.2968 14.3679C61.2968 13.0421 60.5463 12.375 59.5957 12.3666C58.6451 12.3583 57.8946 13.0421 57.8946 14.3679C57.8946 15.6854 58.6451 16.3775 59.5957 16.3691C60.5463 16.3608 61.2968 15.6854 61.2968 14.3679Z" fill="#002767"/>
<path d="M62.7979 15.2435H63.6901C63.7484 15.9022 64.2404 16.3608 64.9325 16.3608C65.6997 16.3608 66.175 15.9356 66.175 15.4519C66.175 14.8933 65.8831 14.6348 64.9325 14.6348H64.5823C63.6317 14.6348 62.8896 14.1261 62.8896 13.2172C62.8896 12.4 63.5817 11.6162 64.9325 11.6162C66.1666 11.6162 66.9004 12.375 66.9755 13.434H66.0832C66.0249 12.7419 65.6246 12.35 64.9325 12.35C64.182 12.35 63.7818 12.7086 63.7818 13.2172C63.7818 13.6925 64.032 13.8843 64.9325 13.8926H65.191C66.3751 13.8926 67.0672 14.5097 67.0672 15.4519C67.0672 16.2691 66.3251 17.103 64.9325 17.103C63.7318 17.103 62.8646 16.3191 62.7979 15.2435Z" fill="#002767"/>
<path d="M21.1468 22.1476H21.1635C21.5304 21.4638 22.1975 21.0469 23.0397 21.0469C24.3405 21.0469 25.4412 22.0058 25.4412 23.7569C25.4412 25.5497 24.3405 26.5253 23.0397 26.5253C22.1975 26.5253 21.5304 26.1084 21.1635 25.4246H21.1468C21.1635 25.6414 21.1635 25.8165 21.1635 26.0166V28.0179H20.313V21.1803H21.1635V21.5639C21.1635 21.764 21.1635 21.9308 21.1468 22.1476ZM24.5573 23.7652C24.5573 22.5812 23.8569 21.7807 22.8479 21.789C21.8306 21.7973 21.1552 22.6062 21.1552 23.7569C21.1552 24.9493 21.8306 25.7915 22.8479 25.7998C23.8485 25.8082 24.5573 24.9827 24.5573 23.7652Z" fill="#002767"/>
<path d="M27.2172 18.812H26.3667V26.4001H27.2172V18.812Z" fill="#002767"/>
<path d="M28.4263 19.4126H29.3185V20.3048H28.4263V19.4126ZM28.4429 21.1804H29.2935V26.4003H28.4429V21.1804Z" fill="#002767"/>
<path d="M30.5278 21.1803H31.3617V22.0975H31.3784C31.6452 21.5972 32.1538 21.0552 33.0461 21.0552C34.1718 21.0552 34.8722 21.864 34.8722 23.1148V26.4085H34.0217V23.1982C34.0217 22.2309 33.5297 21.814 32.8459 21.814C32.0621 21.814 31.3867 22.381 31.3867 23.465V26.4085H30.5362V21.1803H30.5278Z" fill="#002767"/>
<path d="M39.2915 26.4001L37.6572 24.1237L36.9067 24.9992V26.4001H36.0562V18.812H36.9067V23.8402L39.0747 21.1802H40.1921L38.2158 23.4816L40.3255 26.4001H39.2915Z" fill="#002767"/>
<path d="M40.2505 23.7903C40.2505 22.0308 41.4012 21.0469 42.8438 21.0469C44.2863 21.0469 45.4371 22.0308 45.4371 23.7903C45.4371 25.533 44.2863 26.5336 42.8438 26.5336C41.4012 26.5336 40.2505 25.5414 40.2505 23.7903ZM44.5365 23.7903C44.5365 22.4644 43.786 21.7973 42.8354 21.789C41.8848 21.7807 41.1344 22.4644 41.1344 23.7903C41.1344 25.1077 41.8848 25.7998 42.8354 25.7915C43.7944 25.7832 44.5365 25.1161 44.5365 23.7903Z" fill="#002767"/>
<path d="M46.0376 24.6741H46.9298C46.9882 25.3329 47.4802 25.7915 48.1723 25.7915C48.9394 25.7915 49.4147 25.3662 49.4147 24.8826C49.4147 24.3239 49.1229 24.0654 48.1723 24.0654H47.822C46.8715 24.0654 46.1293 23.5568 46.1293 22.6479C46.1293 21.8307 46.8214 21.0469 48.1723 21.0469C49.4064 21.0469 50.1402 21.8057 50.2152 22.8647H49.323C49.2646 22.1726 48.8644 21.7807 48.1723 21.7807C47.4218 21.7807 47.0215 22.1392 47.0215 22.6479C47.0215 23.1232 47.2717 23.315 48.1723 23.3233H48.4308C49.6148 23.3233 50.3069 23.9404 50.3069 24.8826C50.3069 25.6998 49.5648 26.5336 48.1723 26.5336C46.9715 26.5336 46.1043 25.7498 46.0376 24.6741Z" fill="#002767"/>
<path d="M22.1974 32.5376V35.8314H21.3469V32.621C21.3469 31.6538 20.905 31.2368 20.2879 31.2368C19.5541 31.2368 18.9371 31.7955 18.9371 32.8795V35.8314H18.0865V32.621C18.0865 31.6538 17.6446 31.2368 17.0275 31.2368C16.2938 31.2368 15.6767 31.8039 15.6767 32.8879V35.8314H14.8262V30.6114H15.66V31.5203H15.6767C15.9269 31.02 16.3938 30.478 17.236 30.478C18.0198 30.478 18.5869 30.9116 18.8203 31.6538C19.0955 30.9867 19.6292 30.478 20.4964 30.478C21.5554 30.478 22.1974 31.2869 22.1974 32.5376Z" fill="#002767"/>
<path d="M23.3564 28.835H24.2487V29.7272H23.3564V28.835ZM23.3815 30.6111H24.232V35.831H23.3815V30.6111Z" fill="#002767"/>
<path d="M25.458 30.6114H26.2919V31.5203H26.3085C26.5754 31.02 27.084 30.478 27.9762 30.478C29.102 30.478 29.8024 31.2869 29.8024 32.5376V35.8314H28.9519V32.621C28.9519 31.6538 28.4599 31.2368 27.7761 31.2368C26.9923 31.2368 26.3169 31.8039 26.3169 32.8879V35.8314H25.4663V30.6114H25.458Z" fill="#002767"/>
<path d="M30.9614 28.835H31.8536V29.7272H30.9614V28.835ZM30.9781 30.6111H31.8286V35.831H30.9781V30.6111Z" fill="#002767"/>
<path d="M32.7456 34.1053H33.6378C33.6962 34.764 34.1882 35.2227 34.8803 35.2227C35.6474 35.2227 36.1227 34.7974 36.1227 34.3138C36.1227 33.7551 35.8309 33.4966 34.8803 33.4966H34.5301C33.5795 33.4966 32.8373 32.9879 32.8373 32.079C32.8373 31.2619 33.5294 30.478 34.8803 30.478C36.1144 30.478 36.8482 31.2368 36.9232 32.2958H36.031C35.9726 31.6037 35.5724 31.2118 34.8803 31.2118C34.1298 31.2118 33.7296 31.5704 33.7296 32.079C33.7296 32.5543 33.9797 32.7461 34.8803 32.7544H35.1388C36.3228 32.7544 37.0149 33.3715 37.0149 34.3138C37.0149 35.1309 36.2728 35.9648 34.8803 35.9648C33.6712 35.9648 32.8123 35.181 32.7456 34.1053Z" fill="#002767"/>
<path d="M38.8915 31.3536V34.3638C38.8915 34.8307 39.1166 35.0976 39.5168 35.0976H40.4007V35.8397H39.4251C38.5162 35.8397 38.0409 35.3811 38.0409 34.4472V31.3619H37.0903V30.6198H38.0409V29.1855H38.8915V30.6114H40.4007V31.3536H38.8915Z" fill="#002767"/>
<path d="M45.6705 33.5049H41.593C41.7014 34.5806 42.3435 35.2227 43.2357 35.2227C43.9361 35.2227 44.4948 34.8224 44.7033 34.2304H45.6205C45.4037 35.2393 44.4698 35.9648 43.2273 35.9648C41.7097 35.9648 40.6841 34.8724 40.6841 33.2214C40.6841 31.5037 41.7264 30.478 43.2273 30.478C44.6282 30.478 45.6622 31.487 45.6622 32.8212V33.5049H45.6705ZM41.6013 32.7461H44.8117C44.7199 31.8539 44.1196 31.2202 43.2357 31.2202C42.3184 31.2202 41.7014 31.8956 41.6013 32.7461Z" fill="#002767"/>
<path d="M46.5879 30.6114H47.4217V31.5203H47.4384C47.6886 31.02 48.1555 30.478 48.9977 30.478H49.498V31.2202H48.881C48.0054 31.2202 47.4384 31.7955 47.4384 32.8879V35.8314H46.5879V30.6114Z" fill="#002767"/>
<path d="M50.1899 28.835H51.0822V29.7272H50.1899V28.835ZM50.2066 30.6111H51.0572V35.831H50.2066V30.6111Z" fill="#002767"/>
<path d="M51.3741 36.6815H51.6409C52.0411 36.6815 52.2663 36.398 52.2663 35.8977V30.6111H53.1168V35.856C53.1168 36.7566 52.4998 37.4403 51.6326 37.4403H51.3657V36.6815H51.3741ZM52.2496 28.835H53.1418V29.7272H52.2496V28.835Z" fill="#002767"/>
<path d="M58.7953 35.0892C58.6036 35.0892 58.5202 34.9725 58.5202 34.764V32.2875C58.5202 31.2368 57.9448 30.478 56.4856 30.478C55.0763 30.478 54.3426 31.1951 54.2675 32.2958H55.118C55.1931 31.6037 55.7184 31.2118 56.4856 31.2118C57.1693 31.2118 57.6363 31.5287 57.6363 32.0373V32.646H56.077C54.8262 32.646 54.0674 33.1964 54.0674 34.2721C54.0674 35.4061 54.8929 35.9731 55.9185 35.9731C56.7524 35.9731 57.4445 35.5729 57.7113 34.7974V34.9141C57.7113 35.4645 58.0449 35.8314 58.6703 35.8314H59.1789V35.0892H58.7953ZM57.6613 33.4049C57.6613 34.6723 56.9108 35.2393 56.0603 35.2393C55.2848 35.2393 54.9596 34.764 54.9596 34.2804C54.9596 33.8218 55.2431 33.3965 56.102 33.3965H57.6696V33.4049H57.6613Z" fill="#002767"/>
<path d="M19.2621 25.6664C19.0703 25.6664 18.987 25.5497 18.987 25.3412V22.8646C18.987 21.814 18.4116 21.0552 16.9524 21.0552C15.5431 21.0552 14.8094 21.7723 14.7343 22.873H15.5848C15.6599 22.1809 16.1852 21.789 16.9524 21.789C17.6361 21.789 18.1031 22.1058 18.1031 22.6145V23.2232H16.5438C15.293 23.2232 14.5342 23.7735 14.5342 24.8492C14.5342 25.9833 15.3597 26.5503 16.3853 26.5503C17.2192 26.5503 17.9113 26.15 18.1781 25.3745V25.4913C18.1781 26.0416 18.5117 26.4085 19.1371 26.4085H19.6457V25.6664H19.2621ZM18.1281 23.9737C18.1281 25.2411 17.3776 25.8081 16.5271 25.8081C15.7516 25.8081 15.4264 25.3328 15.4264 24.8492C15.4264 24.3906 15.7099 23.9653 16.5688 23.9653H18.1364V23.9737H18.1281Z" fill="#002767"/>
<path d="M0.358887 32.5957V33.5797C2.76873 33.5797 3.93612 34.105 5.17857 34.6637C6.4627 35.239 7.78853 35.8311 10.3985 35.8311V34.8471C7.98866 34.8471 6.82126 34.3218 5.57882 33.7631C4.30302 33.1961 2.97719 32.5957 0.358887 32.5957Z" fill="#002767"/>
<path d="M0.358887 29.1938V30.1777C2.76873 30.1777 3.93612 30.7031 5.17857 31.2617C6.4627 31.8371 7.78853 32.4291 10.3985 32.4291V31.4452C7.98866 31.4452 6.82126 30.9199 5.57882 30.3612C5.05349 30.1277 4.51148 29.8859 3.87775 29.6858C4.51148 29.4856 5.04515 29.2438 5.57882 29.0103C6.82126 28.4517 7.99699 27.9263 10.3985 27.9263V26.9424C7.78019 26.9424 6.45436 27.5344 5.17857 28.1098C3.94446 28.6685 2.76873 29.1938 0.358887 29.1938Z" fill="#002767"/>
<path d="M0.358887 21.2803V22.2642C2.76873 22.2642 3.93612 22.7895 5.17857 23.3482C5.70389 23.5817 6.2459 23.8235 6.87963 24.0237C6.2459 24.2238 5.71223 24.4656 5.17857 24.6991C3.93612 25.2578 2.76039 25.7831 0.358887 25.7831V26.767C2.97719 26.767 4.30302 26.175 5.57882 25.5996C6.82126 25.041 7.99699 24.5156 10.3985 24.5156V23.5317C7.98866 23.5317 6.82126 23.0064 5.57882 22.4477C4.30302 21.8806 2.97719 21.2803 0.358887 21.2803Z" fill="#002767"/>
<path d="M0.358887 17.8784V18.8623C2.76873 18.8623 3.93612 19.3876 5.17857 19.9463C6.4627 20.5217 7.78853 21.1137 10.3985 21.1137V20.1298C7.98866 20.1298 6.82126 19.6044 5.57882 19.0458C5.05349 18.8123 4.51148 18.5705 3.87775 18.3703C4.51148 18.1702 5.04515 17.9284 5.57882 17.6949C6.82126 17.1362 7.99699 16.6109 10.3985 16.6109V15.627C7.78019 15.627 6.45436 16.219 5.17857 16.7943C3.94446 17.353 2.76873 17.8784 0.358887 17.8784Z" fill="#002767"/>
<path d="M0.358887 9.96484V10.9488C2.76873 10.9488 3.93612 11.4741 5.17857 12.0328C5.70389 12.2663 6.2459 12.5081 6.87963 12.7082C6.2459 12.9083 5.71223 13.1502 5.17857 13.3836C3.93612 13.9423 2.76039 14.4677 0.358887 14.4677V15.4516C2.97719 15.4516 4.30302 14.8596 5.57882 14.2842C6.82126 13.7255 7.99699 13.2002 10.3985 13.2002V12.2163C7.98866 12.2163 6.82126 11.6909 5.57882 11.1322C4.30302 10.5569 2.97719 9.96484 0.358887 9.96484Z" fill="#002767"/>
<path d="M0.358887 6.56293V7.54688C2.76873 7.54688 3.93612 8.07221 5.17857 8.63089C6.4627 9.20625 7.78853 9.79829 10.3985 9.79829V8.81434C7.98866 8.81434 6.82126 8.28901 5.57882 7.73033C5.05349 7.48851 4.51982 7.25503 3.88609 7.0549C4.51982 6.85478 5.05349 6.61296 5.58715 6.37948C6.8296 5.8208 8.00533 5.29547 10.4068 5.29547V4.31152C7.78853 4.31152 6.4627 4.90356 5.1869 5.47892C3.94446 6.0376 2.76873 6.56293 0.358887 6.56293Z" fill="#002767"/>
<path d="M5.18687 2.06828C3.94442 2.62696 2.76869 3.15229 0.367188 3.15229V4.13623C2.98549 4.13623 4.31132 3.5442 5.58712 2.96884C6.82956 2.41016 8.00529 1.88483 10.4068 1.88483V0.900879C7.78849 0.900879 6.46266 1.49292 5.18687 2.06828Z" fill="#002767"/>
</svg>
