<svg width="105" height="40" viewBox="0 0 105 40" fill="none" xmlns="http://www.w3.org/2000/svg">
<g clip-path="url(#clip0_728_196)">
<path fill-rule="evenodd" clip-rule="evenodd" d="M85.9704 8.61269C85.9704 6.28549 81.3144 7.73509 81.3144 6.32309C81.3144 5.40789 82.4768 5.26309 83.1728 5.26309C83.936 5.26309 84.9224 5.40709 85.1904 6.23989L85.7784 6.09509C85.404 4.98069 84.2504 4.72949 83.1952 4.72949C82.2168 4.72949 80.6576 5.08709 80.6576 6.32309C80.6576 8.43749 85.2896 6.93429 85.2896 8.61269C85.2896 9.60469 83.9296 9.68869 83.2096 9.68869C82.316 9.68869 81.3688 9.52869 81.1088 8.65829L80.4896 8.81829C80.78 10.0015 82.0416 10.2231 83.2096 10.2231C84.3112 10.2231 85.9704 10.0623 85.9704 8.61269ZM79.1904 7.46869C79.1904 9.00949 78.204 9.68869 76.7744 9.68869C75.3528 9.68869 74.3664 9.00949 74.3664 7.46789C74.3664 5.91909 75.368 5.26309 76.7744 5.26309C78.1736 5.26309 79.1904 5.91909 79.1904 7.46789V7.46869ZM79.84 7.46869C79.84 5.53829 78.5248 4.72949 76.7744 4.72949C75.0392 4.72949 73.7168 5.53749 73.7168 7.46789C73.7168 9.39829 75.0168 10.2231 76.7744 10.2231C78.548 10.2231 79.84 9.39909 79.84 7.46789V7.46869ZM73.6784 4.80469H72.9688L70.6136 9.59669L68.2528 4.80469H67.5408L70.2088 10.1463H71.012L73.6784 4.80469ZM66.9296 7.69669V4.80549H66.2808V7.69589C66.2808 9.14629 65.6464 9.68789 64.2248 9.68789C62.7944 9.68789 62.1832 9.15349 62.1832 7.69589V4.80549H61.5336V7.69589C61.5336 9.60309 62.3896 10.2223 64.224 10.2223C66.0736 10.2223 66.9296 9.62709 66.9296 7.69589V7.69669ZM60.7696 5.33909V4.80549H55.228V5.33909H57.6736V10.1463H58.3232V5.33909H60.7696ZM54.5776 10.1463V9.61189H50.36V7.65909H54.0512V7.12469H50.36V5.33909H54.5328V4.80549H49.7096V10.1463H54.5776ZM47.76 10.1463H48.4096V4.80549H47.76V10.1463ZM46.8424 10.1463V9.61189H43.2272V4.80549H42.5776V10.1463H46.8424Z" fill="#231F20"/>
<mask id="mask0_728_196" style="mask-type:luminance" maskUnits="userSpaceOnUse" x="42" y="13" width="63" height="7">
<path d="M42.5776 13.7471H104.666V19.2407H42.5776V13.7471Z" fill="white"/>
</mask>
<g mask="url(#mask0_728_196)">
<path fill-rule="evenodd" clip-rule="evenodd" d="M104.666 17.6303C104.666 15.3031 100.011 16.7527 100.011 15.3407C100.011 14.4255 101.173 14.2807 101.867 14.2807C102.633 14.2807 103.619 14.4255 103.886 15.2575L104.474 15.1127C104.1 13.9983 102.946 13.7471 101.89 13.7471C100.913 13.7471 99.3544 14.1047 99.3544 15.3407C99.3544 17.4551 103.986 15.9519 103.986 17.6303C103.986 18.6223 102.625 18.7063 101.906 18.7063C101.012 18.7063 100.064 18.5463 99.804 17.6759L99.1856 17.8359C99.476 19.0191 100.737 19.2407 101.906 19.2407C103.007 19.2407 104.666 19.0807 104.666 17.6303ZM97.8864 16.4863C97.8864 18.0271 96.9 18.7063 95.4704 18.7063C94.0488 18.7063 93.0632 18.0271 93.0632 16.4855C93.0632 14.9375 94.064 14.2807 95.4712 14.2807C96.8696 14.2807 97.8864 14.9375 97.8864 16.4863ZM98.536 16.4863C98.536 14.5559 97.2208 13.7471 95.4712 13.7471C93.7352 13.7471 92.4136 14.5551 92.4136 16.4855C92.4136 18.4159 93.7128 19.2407 95.4712 19.2407C97.244 19.2407 98.536 18.4175 98.536 16.4863ZM92.604 19.1639L89.0272 16.1423L92.3976 13.8223H91.4192L87.8192 16.3183V13.8223H87.1696V19.1639H87.82V16.9815L88.5072 16.5015L91.6872 19.1639H92.604ZM85.2208 19.1639H85.8704V13.8231H85.2208V19.1639ZM84.3032 19.1639V18.6295H80.688V13.8231H80.0384V19.1639H84.3024H84.3032ZM78.5096 17.6223C78.5096 18.3319 78.1272 18.6303 77.4392 18.6303H74.2448V16.6599H77.2872C77.9512 16.6599 78.5096 16.8903 78.5096 17.6223ZM78.1816 15.2423C78.1816 15.7455 77.852 16.1423 77.3472 16.1423H74.2448V14.3567H77.088C77.6768 14.3567 78.1816 14.5863 78.1816 15.2423ZM79.1592 17.6223C79.1592 16.9743 78.7848 16.5775 78.204 16.3639C78.6168 16.1495 78.8304 15.7151 78.8304 15.2495C78.8304 14.2343 77.9896 13.8231 77.08 13.8231H73.5944V19.1639H77.4392C78.4792 19.1639 79.1592 18.7295 79.1592 17.6223ZM72.448 16.7143V13.8231H71.7976V16.7143C71.7976 18.1647 71.1632 18.7063 69.7416 18.7063C68.3128 18.7063 67.7016 18.1719 67.7016 16.7143V13.8231H67.0512V16.7143C67.0512 18.6223 67.9072 19.2407 69.7416 19.2407C71.5912 19.2407 72.448 18.6455 72.448 16.7143ZM65.6368 15.3639C65.6368 15.9975 65.1632 16.3719 64.5208 16.3719H61.6168V14.3559H64.5208C65.1632 14.3559 65.6368 14.7303 65.6368 15.3631V15.3639ZM66.2872 15.3639C66.2872 14.3639 65.4688 13.8231 64.544 13.8231H60.9664V19.1639H61.6168V16.9055H64.544C65.4688 16.9055 66.2872 16.3639 66.2872 15.3639ZM60.0496 17.6303C60.0496 15.3031 55.3952 16.7527 55.3952 15.3407C55.3952 14.4255 56.5576 14.2807 57.2528 14.2807C58.0176 14.2807 59.0032 14.4255 59.2704 15.2575L59.86 15.1127C59.4848 13.9983 58.3304 13.7471 57.276 13.7471C56.2976 13.7471 54.7384 14.1047 54.7384 15.3407C54.7384 17.4551 59.3704 15.9519 59.3704 17.6303C59.3704 18.6223 58.0096 18.7063 57.2912 18.7063C56.396 18.7063 55.4488 18.5463 55.1896 17.6759L54.5696 17.8359C54.8608 19.0191 56.1216 19.2407 57.2912 19.2407C58.3912 19.2407 60.0496 19.0807 60.0496 17.6303ZM53.844 19.1639V18.6295H49.624V16.6767H53.316V16.1423H49.624V14.3567H53.7968V13.8231H48.9744V19.1639H53.844ZM47.2936 15.3639C47.2936 15.9975 46.7888 16.3719 46.1848 16.3719H43.2272V14.3559H46.1848C46.7888 14.3559 47.2936 14.7303 47.2936 15.3631V15.3639ZM48.0576 19.1639L46.4904 16.8823C47.2856 16.7759 47.9432 16.2495 47.9432 15.3639C47.9432 14.3639 47.1024 13.8231 46.176 13.8231H42.5776V19.1639H43.2272V16.9055H45.7952L47.3232 19.1639H48.0576Z" fill="#231F20"/>
</g>
<path fill-rule="evenodd" clip-rule="evenodd" d="M96.5638 21.9773C96.5638 21.7485 96.3726 21.5581 96.143 21.5581C95.9142 21.5581 95.723 21.7485 95.723 21.9773C95.723 22.2069 95.9142 22.3973 96.143 22.3973C96.3726 22.3973 96.5638 22.2069 96.5638 21.9773ZM98.475 28.1813V27.6469H94.2558V25.6933H97.947V25.1589H94.2558V23.3741H98.4286V22.8397H93.6054V28.1813H98.475ZM92.0774 26.6397C92.0774 27.3493 91.6942 27.6469 91.007 27.6469H87.8118V25.6781H90.8542C91.5182 25.6781 92.0774 25.9069 92.0774 26.6397ZM91.7486 24.2589C91.7486 24.7629 91.4198 25.1589 90.915 25.1589H87.811V23.3741H90.655C91.2438 23.3741 91.7486 23.6029 91.7486 24.2589ZM92.727 26.6397C92.727 25.9909 92.3526 25.5941 91.771 25.3805C92.1838 25.1677 92.3982 24.7325 92.3982 24.2661C92.3982 23.2517 91.5582 22.8397 90.647 22.8397H87.1622V28.1813H91.007C92.047 28.1813 92.727 27.7461 92.727 26.6397ZM86.4742 22.8397H85.7022L83.615 25.5797L81.5054 22.8397H80.7342L83.271 26.0981V28.1813H83.9446V26.0981L86.4742 22.8397ZM80.7342 26.6477C80.7342 24.3197 76.0782 25.7693 76.0782 24.3589C76.0782 23.4429 77.2406 23.2973 77.9366 23.2973C78.7014 23.2973 79.687 23.4429 79.9542 24.2749L80.5422 24.1301C80.1686 23.0157 79.0142 22.7637 77.9598 22.7637C76.9806 22.7637 75.4214 23.1221 75.4214 24.3589C75.4214 26.4725 80.0534 24.9685 80.0534 26.6469C80.0534 27.6389 78.6934 27.7229 77.9734 27.7229C77.0806 27.7229 76.1326 27.5629 75.8726 26.6925L75.2534 26.8525C75.5446 28.0365 76.8054 28.2573 77.9734 28.2573C79.0758 28.2573 80.7342 28.0973 80.7342 26.6477ZM74.4126 25.7317V22.8397H73.763V25.7317C73.763 27.1813 73.1286 27.7237 71.707 27.7237C70.2782 27.7237 69.667 27.1893 69.667 25.7317V22.8397H69.0166V25.7317C69.0166 27.6389 69.8726 28.2573 71.707 28.2573C73.5566 28.2573 74.4126 27.6621 74.4126 25.7317ZM67.0366 26.0517H64.3998L65.7214 23.3213L67.0366 26.0517ZM68.787 28.1813L66.1118 22.8397H65.3246L62.6494 28.1813H63.3606L64.1398 26.5789H67.2966L68.0766 28.1813H68.787ZM61.235 28.1813H61.8854V22.8397H61.235V28.1813ZM59.4774 24.3813C59.4774 25.0141 58.9734 25.3885 58.3686 25.3885H55.411V23.3741H58.3686C58.9726 23.3741 59.4774 23.7485 59.4774 24.3813ZM60.2414 28.1813L58.6742 25.8997C59.4694 25.7925 60.127 25.2661 60.127 24.3805C60.127 23.3813 59.2862 22.8397 58.3614 22.8397H54.7614V28.1813H55.411V25.9229H57.979L59.5078 28.1813H60.2414ZM54.0734 22.8397H53.3014L51.2142 25.5797L49.1054 22.8397H48.3334L50.8694 26.0981V28.1813H51.543V26.0981L54.0734 22.8397ZM48.1798 22.8397H47.4686L45.115 27.6317L42.7534 22.8397H42.043L44.7102 28.1813H45.5126L48.1798 22.8397Z" fill="#231F20"/>
<path fill-rule="evenodd" clip-rule="evenodd" d="M0.354492 0.600098H34.3505V23.2513C34.3505 32.0657 26.7153 39.2545 17.3529 39.2545C7.99049 39.2545 0.354492 32.0657 0.354492 23.2513V0.600098Z" fill="#EC1C24"/>
<path fill-rule="evenodd" clip-rule="evenodd" d="M17.5328 15.7502C17.5168 15.8606 17.5016 15.971 17.4872 16.0822C17.832 16.2006 18.1384 16.3566 18.3032 16.6462C18.8072 16.3518 19.2328 15.9958 19.5352 15.5398L17.5328 15.7502ZM9.51196 13.1094L9.92316 12.679C10.4032 12.6926 10.864 12.6318 11.3168 12.539C11.456 13.3334 11.3048 14.023 10.936 14.631L9.88316 14.311C9.95756 13.8398 9.89116 13.4198 9.51196 13.1094ZM8.99196 8.75418L8.05596 9.81738C7.68956 10.2398 7.32476 10.663 6.95996 11.0854L6.53036 11.5614L5.99036 12.2438C5.81436 12.4974 5.87916 12.751 6.05356 13.0046C6.01996 13.343 5.93036 13.6726 6.25996 14.067C6.44396 14.1806 6.63676 14.2014 6.84796 14.019L6.97436 13.5598L7.51516 13.1158L7.81676 13.5278L7.54636 13.8134L7.69036 14.099L7.51436 14.2414C7.43276 14.651 7.71916 14.6094 7.94396 14.511C8.58156 14.4582 9.05116 14.1782 9.15196 13.4014C9.35356 13.5598 9.47196 13.7598 9.40556 14.051L8.89756 15.067C8.60156 15.0886 8.42716 15.323 8.40156 15.5662C8.37596 15.8086 8.49916 16.0582 8.79756 16.1118C8.99036 16.1462 9.21116 16.059 9.35756 15.8278C9.45756 15.651 9.46236 15.4606 9.37356 15.2566L10.4384 15.5582L10.1368 16.1126C9.70316 16.1422 9.32316 16.3886 9.02476 16.9534L8.38876 17.9214C8.09516 17.6318 7.73516 17.4302 7.31756 17.283C7.06876 17.195 6.89836 17.155 6.75596 17.1534C6.54796 17.151 6.39916 17.231 6.14876 17.3662L2.66876 19.475C2.48316 19.643 2.31996 19.8238 2.24076 20.0462L1.17676 22.6942L1.31916 23.2182L2.12956 22.9958C2.00076 23.3278 1.92476 23.6078 1.88796 23.8918C1.84316 24.243 1.85916 24.5998 1.91196 25.0638C1.97436 25.6286 2.01196 26.1942 2.08236 26.755L2.43116 27.151L4.24236 25.1046C4.12396 24.959 4.00076 24.8422 3.86796 24.7438C3.69836 24.6158 3.51356 24.5174 3.30476 24.4238C3.21116 24.0182 3.35916 23.7278 3.59276 23.711C3.73196 23.7006 3.90156 23.7894 4.06796 24.0102C4.39516 23.7198 4.45116 23.3166 4.32236 22.8374C4.66636 22.3254 5.03916 21.8286 5.44796 21.3486C5.70236 21.0502 5.83996 20.8582 6.25836 20.8262C6.71916 20.7902 6.94316 21.0662 7.14476 21.4294C7.30636 21.7206 7.41356 22.0446 7.45116 22.4086L9.19916 24.6614C9.30076 24.7974 9.43516 24.9014 9.64396 24.931C9.83996 24.9486 10.036 24.9502 10.2312 24.915C10.4552 24.8222 10.6136 24.6862 10.6768 24.4862L12.0744 24.9782L12.2968 25.0894L12.1704 25.4062C11.8928 25.4078 11.6664 25.5166 11.5504 25.8662C10.3968 25.9446 9.38396 26.459 8.57996 27.6102C8.74316 27.7326 8.90796 27.8542 9.07196 27.975C9.38236 27.5182 9.76556 27.3742 10.184 27.3726L10.2 27.6742L12.2336 27.8646L12.3296 27.595C12.5568 27.659 12.7944 27.7422 13.0224 27.8054C13.0856 27.6894 13.1392 27.5526 13.2024 27.4366L14.8392 28.007C14.5272 28.2398 14.1432 28.503 13.8312 28.735C14.3128 28.7134 14.8656 28.663 15.3472 28.6414L16.3488 29.9902L16.1424 28.3086C16.528 28.0702 16.9152 27.8326 17.3016 27.595C16.8408 27.579 16.38 27.583 15.9192 27.5678C15.6552 27.1974 15.3896 26.807 15.1256 26.4374L15.1568 27.4838L13.4248 26.8974C13.6328 26.451 14.0128 26.1254 14.4888 25.8662C15.5576 26.1758 16.6768 26.3374 17.8256 26.4054L17.8896 29.6566C17.8768 30.6102 18.0664 31.507 18.6992 32.2734C19.2176 31.6174 19.4072 30.7198 19.4144 29.6886L19.3664 26.3902C19.5392 26.3934 19.716 26.419 19.7808 26.547C19.8152 26.6134 19.8544 26.6854 19.8976 26.7606C20.0768 27.075 20.0304 27.0726 20.3696 26.995C20.6896 26.9198 21.0296 26.8766 21.3336 26.8654C21.3528 27.359 21.4736 27.7638 21.7032 28.0854C21.9336 28.4062 22.2736 28.6454 22.7304 28.8102C23.3512 29.135 23.8544 29.4846 24.26 29.863C24.476 30.3326 24.6104 30.8094 24.4504 31.3062C24.1104 31.9118 23.78 32.5142 23.4008 33.1086C23.212 33.4038 23.1048 33.583 22.8096 33.7622C21.7704 34.3886 20.6176 35.1166 20.0976 36.2374L20.0336 36.7614L21.2416 36.7294V37.0942L23.9584 37.1102L23.9744 36.2542C24.2424 35.579 24.6448 35.5214 25.1816 36.079C25.4712 35.7582 25.6528 35.3718 25.6736 34.8902L28.0736 31.0998C28.2144 30.9134 28.3008 30.7262 28.324 30.5374C28.364 30.2182 28.2656 30.0094 28.0968 29.855C27.8512 29.6318 27.4536 29.5294 27.1208 29.387C26.7728 29.1806 26.5184 28.899 26.468 28.451C26.58 27.551 27.4808 26.7814 27.9296 25.851C28.0656 25.1414 28.092 24.5246 28.0528 23.8294C28.1408 23.867 28.2568 23.919 28.2968 24.0158C28.964 25.6302 31.4704 27.2926 32.9232 25.5238C32.4192 25.6822 31.948 25.6758 31.552 25.4854C33.836 25.0886 33.0768 22.5414 33.536 22.0302C33.3512 21.9166 33.1616 21.9686 33.0296 22.1238C32.9152 20.8902 31.6928 19.999 31.2656 18.9358C31.148 19.0166 31.0544 19.1918 30.964 19.3798C30.0048 18.2014 29.9024 17.0222 30.2336 15.8438C29.2416 16.0422 28.78 17.1798 28.756 19.0942C28.4216 18.627 28.3848 18.011 28.3744 17.3822C27.9232 18.1918 27.5536 19.0062 28.184 20.1414C28.6392 20.7902 29.1736 21.3574 29.884 22.0598C30.1184 22.3182 30.6952 22.7414 30.2016 23.055C29.5672 23.2582 29.064 23.1382 28.5656 22.8846C27.5528 22.2734 26.6728 21.5478 25.8488 20.7758C25.2168 20.3102 24.5272 20.0158 23.8152 19.7918C24.0952 19.3246 24.4288 18.8502 23.8312 18.4918L23.2432 18.3014V17.4294C23.9768 17.9694 24.7584 18.4414 25.6272 18.7926C28.0536 16.2238 28.4536 12.9446 26.4848 9.54698C26.0128 9.62698 25.5408 9.70698 25.0704 9.78538C24.8528 9.41978 24.376 9.33578 23.8624 9.29338C23.9264 9.20538 23.9552 9.06778 23.9104 8.95258C22.5792 9.13658 23.684 8.01338 23.8832 7.74298C24.248 7.24938 24.2176 6.86618 23.9696 6.43098C23.6736 5.93978 23.3136 5.49098 22.9096 5.10698C22.3704 5.12938 21.8496 5.31898 21.3368 5.58298L21.0352 5.37658C20.6696 5.81498 20.264 6.32458 19.8984 6.76298C20.0096 6.79498 20.1608 6.75658 20.3224 6.75738C20.2784 6.98378 20.1272 7.20218 20.0024 7.37419C19.9608 7.46778 19.9872 7.54698 20.0824 7.61258C19.9824 7.71578 19.9768 7.83178 20.0656 7.96138C20.0824 8.10138 20.0256 8.33498 19.9344 8.50218C19.8424 8.47978 19.7248 8.49258 19.6352 8.56298C19.5216 8.65418 19.4552 8.83978 19.5576 9.16618L19.4616 9.21418C18.8552 8.81818 18.268 8.44138 17.7416 8.04538C17.816 8.00298 17.9096 7.93978 17.9848 7.89818C17.7992 7.79258 17.624 7.64618 17.4392 7.54058C17.3856 7.31898 17.3128 7.09658 17.2592 6.87498C17.1912 6.91178 17.1312 6.98858 17.0632 7.02618L16.712 6.32778L16.984 6.02698C16.516 5.86378 16.448 5.40778 16.4912 4.86858L26.6592 4.72618C27.5184 4.67498 28.312 4.54378 28.7872 4.02858C28.296 3.54618 27.5184 3.35018 26.5632 3.33018L16.4752 3.26698C16.452 2.75338 16.4456 2.19018 16.992 2.03018L16.396 1.45898C15.8904 1.68458 15.672 2.41738 15.5176 3.15258C15.2696 3.02618 15.04 2.83898 14.7912 2.71258C14.6528 2.68938 14.6224 2.84538 14.5688 2.96618C13.8952 2.93258 13.5784 3.24458 13.3616 3.61418L11.7088 3.61578L11.6864 3.08698C10.4696 3.17818 10.5208 4.87178 11.6776 4.91658L11.7056 4.42938L13.3456 4.42458C13.4256 4.71578 13.6176 5.00618 13.8856 5.29658C13.6816 5.74778 13.4616 6.19018 13.2024 6.61338C13.8376 6.69338 14.536 6.70938 15.252 6.70858C15.3672 6.98298 15.496 7.26378 15.7184 7.56458C15.66 7.58618 15.612 7.60778 15.5536 7.62858C15.7248 7.96058 15.8672 8.30458 15.904 8.69098L16.7416 9.29338L16.8776 9.23178C17.2904 9.81578 17.7696 10.4022 18.3976 10.8798C18.6616 12.2158 19.2688 13.6318 19.4616 14.847C18.8376 14.995 18.212 15.031 17.588 15.0982C17.6032 14.5158 17.4592 13.9822 17.2064 13.4806C17.3576 13.4726 17.4584 13.4246 17.54 13.3062C17.0816 12.9254 17.248 12.443 16.92 12.1326L17.0944 11.9422C16.7368 11.6918 16.8 11.099 16.412 10.7686C15.5144 9.25818 14.6664 8.81818 13.8224 8.46858L13.8064 8.27898C13.4728 8.16458 13.1392 8.10618 12.8056 8.07258L12.7896 7.86618C12.2704 7.67658 11.752 7.64538 11.2328 7.72378C10.8664 7.05978 9.94636 7.18938 9.46956 6.75578C8.97916 6.86618 9.32716 7.19258 9.54956 7.41178C9.35916 7.37498 9.05756 7.24779 8.89756 7.20058C8.77356 7.40378 8.93276 7.61978 9.37436 7.85018L8.53196 8.32618C8.54956 8.49898 8.73356 8.63498 8.99196 8.75418Z" fill="white"/>
<path fill-rule="evenodd" clip-rule="evenodd" d="M6.95521 11.1249L6.56641 11.5457C7.12961 11.7801 7.60001 12.1265 8.00641 12.5489C8.29521 12.1849 8.62081 12.1449 8.92561 12.5345C9.58881 11.8921 10.2224 11.2329 10.8856 10.5905C10.9832 10.5905 11.056 10.6145 11.1536 10.6145C11.4216 11.0281 11.6456 11.4969 11.6616 12.1457C11.8264 12.0841 11.9992 12.0289 12.18 12.0145C12.172 11.1769 11.9144 10.6185 11.484 10.2513L11.516 9.9593C11.9976 9.6321 12.2184 9.1465 12.26 8.5521C12.0896 8.4385 11.896 8.3953 11.6784 8.4233C11.648 8.8833 11.444 9.3185 10.9904 9.6377C10.5776 9.2081 10.12 8.8329 9.58241 8.5449C9.22241 8.6409 9.08401 8.7321 8.94481 8.8753C9.48561 9.1257 10.0208 9.4593 10.5464 9.9761C10.5352 10.0625 10.5184 10.1137 10.508 10.2001C9.83441 10.8417 9.11921 11.5601 8.44481 12.2017C7.92481 11.7441 7.45921 11.3465 6.95521 11.1249ZM9.38481 14.1153L8.87041 15.0657C12.0128 16.0457 15.7664 16.1329 20.0744 15.4089C20.8648 15.2249 20.4432 14.6929 20.012 14.7705C15.8992 15.5433 12.3744 15.2953 9.38481 14.1153ZM7.98801 18.5361L7.73201 19.0033L8.31441 19.6393C10.3512 18.8073 12.7016 18.5769 15.2904 18.8001L15.4056 19.3481L12.0136 24.9313C12.1336 24.9929 12.2208 25.0545 12.3416 25.1169L14.884 21.7417L14.9192 21.0881C15.1528 20.7609 15.5232 20.5257 16.032 20.3817C16.6768 19.2833 17.4064 18.2465 18.372 17.3785C18.36 16.2145 17.7368 16.0209 16.9416 16.0977C16.0968 16.3345 15.6632 16.9505 15.416 17.7377C12.8496 17.5521 10.3704 17.8033 7.98801 18.5361ZM17.0224 22.3841C17.0448 22.6337 17.0032 22.8817 16.8656 23.1305L16.6432 23.0401C16.5472 23.5153 16.344 23.9497 16.12 24.3761L17.232 24.3881C17.3 23.9873 17.4896 23.7465 17.7976 23.6665L17.7856 21.8553C17.608 22.1169 17.344 22.2833 17.0224 22.3849M21.1296 21.6201C21.5168 21.7321 21.9896 21.8881 22.308 21.9913C22.3096 21.7545 22.252 21.4097 22.1752 21.1385C21.8216 21.3385 21.4656 21.4953 21.1296 21.6201ZM21.212 10.8889L26.3024 9.8745C27.812 12.0905 28.0408 15.8209 25.5608 18.4585C22.5792 17.2537 20.8584 14.4609 21.212 10.8889ZM22.7584 20.7633C22.9128 21.1385 22.944 21.7185 22.8832 22.1873C23.5144 22.4129 24.1112 22.6625 24.6736 22.9289C24.7128 21.8897 24.708 20.8217 24.2432 19.9801C24.4616 20.0617 24.608 20.1641 24.8256 20.2449C25.276 20.9729 25.244 22.1249 25.224 23.2017C26.3008 23.7569 27.2384 24.3721 28.044 24.9977L27.8904 25.8033C27.2808 25.0961 26.38 24.4353 25.1992 23.8201C25.1672 24.8441 25.2144 25.7153 25.8072 25.9665C25.8096 26.1089 25.8128 26.2521 25.8168 26.3945L25.4896 26.5177C24.6032 25.9817 24.596 24.8249 24.6472 23.5457C24.0992 23.2849 23.4992 23.0337 22.8464 22.7897C22.804 23.6393 22.836 24.5345 23.4368 25.1305L23.4056 25.5681L22.8848 25.5793C22.0816 24.4857 22.2016 23.4817 22.2752 22.5833C21.6576 22.3673 20.8704 22.1289 20.1544 21.9233C20.0344 21.9545 19.9232 21.9817 19.8216 22.0065L19.7896 20.0865L20.9192 19.1505C21.8568 19.1137 22.5064 18.8425 22.7384 18.2305C23.0696 18.2521 23.4016 18.2641 23.732 18.4385C24.2528 18.6929 24.2216 19.0465 24.036 19.4305C23.6712 19.9857 23.228 20.4201 22.7584 20.7633Z" fill="#00ADEE"/>
<path fill-rule="evenodd" clip-rule="evenodd" d="M8.32801 19.5958L8.66801 20.0374C10.38 19.539 12.0632 19.0262 15.4472 19.3814L15.308 18.8126C13.2088 18.5718 10.5336 18.8134 8.32801 19.5958ZM17.7864 18.6102H19.3104L19.324 19.1558C18.684 19.159 18.656 19.9078 19.3168 19.9678L19.3032 20.4566L17.7728 20.4854L17.7576 20.0182C18.512 19.9382 18.5368 19.1878 17.7792 19.1782L17.7864 18.6102ZM24.928 22.8758C25.1984 22.8758 25.4184 23.095 25.4184 23.3654C25.4184 23.635 25.1984 23.855 24.928 23.855C24.656 23.855 24.4368 23.635 24.4368 23.3654C24.4368 23.095 24.6568 22.8758 24.928 22.8758ZM22.5576 21.9582C22.8288 21.9582 23.048 22.1774 23.048 22.447C23.048 22.7182 22.8288 22.9374 22.5576 22.9374C22.2872 22.9374 22.0672 22.7182 22.0672 22.447C22.0672 22.1774 22.2872 21.9582 22.5576 21.9582ZM11.6856 4.8878C10.3832 4.771 10.5224 3.1878 11.6616 3.1758L11.668 3.6374L13.9104 3.6534C14.0712 3.8214 14.1824 4.2142 14.18 4.4134L11.68 4.3998L11.6872 4.8878H11.6856ZM16.3792 6.6238C15.3024 6.1006 15.2144 2.0726 16.3912 1.4126L16.952 2.0126C16.8224 2.0974 16.508 2.1814 16.492 2.551L16.444 5.403C16.4552 5.7246 16.8528 5.9358 17.008 6.0046L16.3792 6.6238ZM11.0192 9.6398C11.2832 9.6398 11.496 9.8526 11.496 10.1158C11.496 10.379 11.2832 10.5918 11.0192 10.5918C10.7568 10.5918 10.5424 10.379 10.5424 10.1158C10.5424 9.8526 10.7568 9.6398 11.0192 9.6398ZM8.76881 13.0838C9.13681 13.2838 9.44721 13.5406 9.43201 14.1246L9.91361 14.3246C9.94001 13.5054 9.61761 12.9822 8.94321 12.7558L8.94481 12.715C8.94481 12.451 8.73121 12.2382 8.46801 12.2382C8.20481 12.2382 7.99121 12.4518 7.99121 12.715C7.99121 12.9774 8.20481 13.1902 8.46801 13.1902C8.58241 13.1902 8.68641 13.1502 8.76881 13.0838ZM8.91281 15.1198C9.18721 15.1198 9.40881 15.3422 9.40881 15.6158C9.40881 15.8886 9.18721 16.111 8.91281 16.111C8.63841 16.111 8.41681 15.8886 8.41681 15.615C8.41681 15.3422 8.63841 15.1198 8.91281 15.1198ZM26.2488 15.1038L25.4312 15.2798L25.6336 16.1806C25.6896 16.4062 25.7576 16.4766 25.928 16.5742L24.5184 16.8862C24.6432 16.6942 24.6624 16.5638 24.624 16.4158L24.4248 15.4814L23.3656 15.7014C23.1704 15.7734 23.1232 15.7942 22.9976 15.9686L22.7312 14.6806C22.8392 14.7574 22.9224 14.771 23.1288 14.7526L24.224 14.535L23.9656 13.3702L22.9384 13.5782C22.7864 13.6158 22.66 13.6822 22.5544 13.8622L22.272 12.579C22.424 12.6646 22.568 12.687 22.732 12.655L23.7824 12.4438L23.6184 11.6118C23.5608 11.459 23.4984 11.3782 23.3368 11.2606L24.6616 10.9862C24.5424 11.131 24.5816 11.3054 24.608 11.4358L24.7728 12.2254L25.596 12.0414C25.836 11.9934 25.94 11.9222 26.0712 11.7374L26.3616 13.0734C26.1968 12.9398 26.0664 12.9662 25.8848 12.9822L24.9856 13.1662L25.216 14.2942L26.14 14.1086C26.2984 14.075 26.42 14.0398 26.516 13.8526L26.8032 15.1502C26.6064 15.0118 26.3952 15.0766 26.2488 15.1038ZM11.6336 26.1518C11.2536 26.6966 10.7264 27.0622 10.152 27.371L10.2048 27.643L12.212 27.851L12.2952 27.611C12.1352 27.4182 12.0272 27.2158 12.0344 26.9942L14.8472 28.0294L13.8744 28.7198L15.3488 28.647L16.3632 30.0278L16.1536 28.3438L17.3136 27.5798L15.9032 27.6014L15.1288 26.4606L15.1504 27.4438L12.0136 26.4294C12.0224 26.387 12.0352 26.4038 12.076 26.4038C12.3536 26.4038 12.5776 26.1894 12.5776 25.9246C12.5776 25.6606 12.3536 25.4462 12.076 25.4462C11.7992 25.4462 11.5744 25.6606 11.5744 25.9246C11.5744 26.007 11.596 26.0846 11.6336 26.1526V26.1518Z" fill="#FCB813"/>
<mask id="mask1_728_196" style="mask-type:luminance" maskUnits="userSpaceOnUse" x="0" y="0" width="35" height="40">
<path d="M0 0.439941H34.5136V39.5879H0V0.439941Z" fill="white"/>
</mask>
<g mask="url(#mask1_728_196)">
<path fill-rule="evenodd" clip-rule="evenodd" d="M34.0424 0.881365H0.4712V23.1134H0.4736L0.4712 23.2734V23.3438C0.4712 27.6958 2.3568 31.6454 5.3976 34.5086C8.4384 37.3726 12.6344 39.1462 17.2568 39.1462C21.8792 39.1462 26.076 37.3718 29.116 34.5086C32.156 31.6454 34.0424 27.6958 34.0424 23.3438V23.2734L34.04 23.1134H34.0424V0.880565V0.881365ZM17.7008 8.11016C17.3424 8.37976 17.0752 8.72136 16.9304 9.16057C17.3112 9.76857 17.8792 10.3342 18.4632 10.8078C18.6672 10.5118 18.8928 10.2014 19.14 9.97737C18.964 9.70376 19.1632 9.51177 19.3856 9.26617C18.8184 8.88377 18.2448 8.50377 17.7008 8.11016ZM16.5216 4.11577L16.5256 4.73737C19.9368 4.70537 23.3296 4.67416 26.74 4.64376C27.3448 4.63736 28.0816 4.54536 28.5512 4.09657C24.5504 4.09176 20.5208 4.12056 16.5216 4.11577ZM16.5216 3.38457V3.97817L28.5352 3.96457C28.1176 3.55497 27.4712 3.49816 26.9168 3.49256L16.5216 3.38457ZM13.3248 6.56136C14.4144 6.63016 15.5536 6.69897 15.8816 6.18936C15.5536 5.45817 15.428 4.58776 15.4568 3.61896C15.4648 3.34696 15.544 3.28536 15.3048 3.15656C15.2608 3.13257 15.2168 3.10857 15.1784 3.08456C15.0848 3.02856 14.9944 2.96856 14.908 2.90376C14.7424 2.77256 14.7 2.95176 14.776 3.13336C14.8224 3.24216 14.912 3.35097 15.0432 3.39496C15.0208 3.57097 15.0048 3.74856 15.0592 3.93737C15.0768 4.00136 15.0632 4.04616 14.9672 4.03896C14.5352 3.98456 14.3256 4.09576 14.2568 4.32296C14.2384 4.38296 14.2448 4.47737 14.2184 4.52296C14.1992 4.55976 14.1576 4.56537 14.0696 4.50457L13.936 4.49497L13.596 4.47096C13.4656 4.45016 13.4432 4.49897 13.528 4.61496C13.7264 4.98377 13.9544 5.33657 14.688 5.37656L14.6704 5.44377C14.4424 5.47016 14.192 5.46856 13.964 5.42776C13.7464 5.79657 13.5416 6.19256 13.3248 6.56136ZM13.4608 3.59016L13.8448 3.60296C13.9992 3.60856 14.0864 3.72777 14.1456 3.86857C14.2296 4.02377 14.3232 3.95497 14.4512 3.92537C14.5696 3.89817 14.6936 3.89097 14.8176 3.88857C14.9888 3.87097 14.9632 3.44057 14.8072 3.36857C14.7032 3.31977 14.6808 3.23256 14.636 3.16056C14.6088 3.11736 14.5736 3.08056 14.5056 3.06056C14.1776 2.96376 13.6296 3.24937 13.4608 3.59016ZM16.3712 1.54776L16.82 1.99656C16.5424 2.13576 16.356 2.33896 16.3712 2.68216L16.388 5.34056C16.4056 5.62456 16.4968 5.87896 16.8536 6.02697L16.4056 6.50056C15.4176 5.99656 15.2888 2.16056 16.3712 1.54776ZM16.7144 6.45416L16.976 7.01656C16.68 7.31336 16.296 7.50456 15.7624 7.50856C15.5824 7.26936 15.4488 7.02056 15.36 6.75896C15.5776 6.66856 15.792 6.57257 15.9992 6.43737C16.1 6.54937 16.2168 6.65337 16.3632 6.74136C16.4928 6.65816 16.6072 6.55976 16.7144 6.45416ZM17.2216 7.02536C17.2856 7.19336 17.3376 7.36376 17.3448 7.54216L16 8.57577C15.9144 8.27177 15.8048 7.97177 15.6736 7.67897C16.2288 7.68297 16.7472 7.48457 17.2224 7.02617L17.2216 7.02536ZM16.0584 8.71017C16.2992 8.86856 16.5336 9.03897 16.752 9.23176C16.9472 8.63017 17.3136 8.18936 17.836 7.89336C17.6992 7.79576 17.5552 7.71337 17.396 7.66137L16.0584 8.71017ZM19.1928 10.0942C19.268 10.1982 19.352 10.311 19.4624 10.391C19.2104 10.847 18.9784 11.3398 18.7848 11.9014C18.6208 11.6294 18.5496 11.3246 18.4928 11.0158C18.6912 10.6654 18.9336 10.3494 19.1928 10.0942ZM20.1296 8.14216C20.1376 8.18616 20.1856 8.21816 20.1816 8.25576C20.18 8.27576 20.1632 8.29577 20.1328 8.31337C20.0704 8.34537 20.0464 8.37577 20.0624 8.40777C20.1032 8.49096 20.2864 8.50136 20.364 8.50136C20.4296 8.50136 20.6536 8.49496 20.6008 8.38216C20.5376 8.31097 20.5224 8.27417 20.5112 8.18297C20.5 8.09977 20.4824 8.05176 20.3224 8.03336C20.22 8.02057 20.1152 8.04217 20.1304 8.14137L20.1296 8.14216ZM20.4256 7.94456C20.6096 7.94776 20.5712 7.99016 20.5904 8.14216C20.6008 8.22776 20.6336 8.31416 20.6912 8.36296C20.7472 8.40936 20.8208 8.41096 20.8944 8.38936C21.004 8.35656 21.112 8.27336 21.1624 8.20616C21.2072 8.14616 21.216 8.08777 21.1416 8.06057C21.068 8.03337 21.0136 8.03657 20.9864 8.08697C20.9776 8.10297 20.9672 8.20696 20.92 8.19736C20.8648 8.18457 20.9056 8.10936 20.912 8.08056C20.9632 7.86456 20.948 7.66457 20.6512 7.62376C20.52 7.60536 20.3472 7.62617 20.2192 7.66057C20.1552 7.67737 20.1016 7.71577 20.0752 7.76057C19.96 7.96457 20.3336 7.94297 20.4264 7.94456H20.4256ZM20.3872 6.79496C20.328 6.98376 20.2432 7.15416 20.1272 7.32936C20.0784 7.39576 20.0408 7.47737 20.1008 7.53497C20.152 7.57096 20.184 7.58137 20.2528 7.56617C20.28 7.55897 20.3152 7.54457 20.3488 7.53736C20.4208 7.52217 20.4744 7.58056 20.5488 7.54137C20.6024 7.51257 20.6272 7.44377 20.5344 7.34137C20.4968 7.30697 20.5208 7.25817 20.5952 7.29257C20.6512 7.34217 20.696 7.39896 20.6592 7.50296C20.9392 7.52136 21.0328 7.69897 21.0432 7.94937C21.148 7.93017 21.2368 7.98057 21.3184 8.06136C21.5344 7.91096 21.9488 7.40056 21.8496 7.10056C21.7776 6.88456 21.5008 6.88696 21.3152 6.86456L21.2864 6.91576C21.32 6.92696 21.408 6.94377 21.4128 6.98137C21.4168 7.01577 21.34 7.03337 21.248 7.04137C21.1296 7.05097 20.9864 7.04536 20.9592 7.04057C20.8456 7.01976 20.7728 6.95816 20.8792 6.80056C20.7272 6.79736 20.5392 6.79736 20.3872 6.79496ZM21.0624 5.49017C20.7648 5.89977 20.4016 6.30377 20.0632 6.67177C21.1704 6.65577 22.0712 6.82776 22.7312 7.19817C22.7128 7.39097 22.7936 7.53176 22.9096 7.59577C23.0584 7.67897 23.272 7.64057 23.3912 7.41737C23.52 7.17417 23.436 6.96136 23.2744 6.87976C23.164 6.82456 23.0168 6.83177 22.876 6.93177C22.1696 6.64296 21.5848 6.12376 21.0624 5.49017ZM21.4432 5.62697C21.7768 6.10697 22.1904 6.53817 22.8912 6.79417C23.1016 6.67977 23.2816 6.70536 23.4032 6.80456C23.6288 6.99096 23.5968 7.31576 23.4424 7.53816C23.3048 7.73496 23.0728 7.85256 22.8376 7.72696C22.7096 7.65816 22.6184 7.51336 22.6168 7.29736C22.5512 7.23337 22.4848 7.20057 22.4192 7.19817C21.8272 8.27177 22.0248 9.55816 23.3264 9.36296C23.528 9.33336 23.8512 9.30136 23.8288 9.05896C23.6848 9.06536 23.5312 9.06697 23.4104 9.03017C23.016 8.90697 23.2416 8.46216 23.3976 8.23816C23.5304 8.04776 23.7016 7.87417 23.8408 7.69097C24.0408 7.42697 24.1736 7.14456 24.0272 6.76296C23.7576 6.07096 23.2936 5.63736 22.8376 5.19336C22.3296 5.25176 21.8696 5.40617 21.4432 5.62697ZM24.7304 12.2926L24.5384 11.443C24.5144 11.315 24.5256 11.1758 24.5656 11.0478C24.2056 11.1246 23.7976 11.2078 23.4368 11.2838C23.5376 11.383 23.6088 11.4982 23.6536 11.6158L23.832 12.483C23.4456 12.5646 23.06 12.651 22.672 12.7278C22.552 12.7518 22.4424 12.7126 22.3488 12.6758C22.4264 13.015 22.504 13.407 22.5824 13.7462C22.6456 13.6558 22.7584 13.5718 22.8736 13.5414C23.248 13.4438 23.6296 13.3718 24.008 13.2878L24.292 14.5822C23.9264 14.6574 23.5608 14.7382 23.1936 14.8086C23.0552 14.835 22.92 14.8126 22.8 14.7686C22.88 15.111 22.9448 15.4998 23.024 15.8422C23.1112 15.7518 23.2424 15.6686 23.3768 15.6406C23.7416 15.5646 24.1096 15.5014 24.4752 15.4326C24.5424 15.7414 24.6176 16.0486 24.6768 16.3582C24.7056 16.5086 24.692 16.6622 24.6104 16.8142C24.9976 16.723 25.4048 16.6358 25.792 16.5454C25.656 16.427 25.5864 16.2798 25.552 16.1318C25.4824 15.8358 25.4248 15.5366 25.36 15.239L26.3248 15.0382C26.4584 15.0166 26.5992 15.023 26.7248 15.0582C26.6464 14.7006 26.5792 14.3358 26.5008 13.9774C26.4088 14.067 26.2568 14.1318 26.1088 14.1758L25.1752 14.3678L24.9112 13.1294L25.9552 12.9134C26.0688 12.907 26.18 12.9086 26.2832 12.959C26.1936 12.6006 26.1248 12.2174 26.0352 11.8582C25.9328 11.991 25.7744 12.0814 25.6112 12.1142C25.3176 12.1734 25.024 12.2342 24.7304 12.2926ZM23.2544 11.239L24.7456 10.9158C24.6488 11.0654 24.6208 11.2334 24.6608 11.4174L24.8168 12.1518C25.0792 12.1046 25.356 12.0478 25.6168 11.991C25.852 11.9406 25.9944 11.8038 26.0952 11.6118C26.2072 12.135 26.3264 12.6726 26.4384 13.1958C26.2816 13.0878 26.0984 13.0094 25.9184 13.039L25.0464 13.2134L25.2656 14.2438C25.536 14.1902 25.8368 14.1454 26.104 14.0758C26.3048 14.023 26.444 13.8806 26.552 13.7454C26.6536 14.2462 26.7696 14.7542 26.872 15.2558C26.6776 15.151 26.464 15.1094 26.256 15.1582L25.4888 15.3102L25.6632 16.1142C25.6952 16.303 25.8072 16.4702 26.0416 16.6038C25.4992 16.7238 24.9568 16.8462 24.4144 16.9678C24.544 16.7806 24.5968 16.587 24.5504 16.359L24.3848 15.5334L23.4536 15.7318C23.2408 15.775 23.0864 15.9462 22.9592 16.0878C22.86 15.6158 22.732 15.0438 22.6328 14.5718C22.7808 14.6462 23.0088 14.7278 23.2664 14.6734L24.16 14.4846L23.9264 13.4414C23.6224 13.4998 23.2944 13.5854 22.9888 13.6286C22.764 13.6614 22.6168 13.827 22.5256 14.027C22.4192 13.5182 22.2856 12.9606 22.1784 12.4526C22.336 12.5502 22.5472 12.6254 22.7744 12.5726L23.7024 12.3886C23.668 12.1518 23.6224 11.915 23.5792 11.6798C23.5464 11.4974 23.408 11.3598 23.2544 11.239ZM21.232 10.919C22.8088 10.6078 24.6968 10.2302 26.2744 9.91897C27.9968 12.4358 27.712 16.2038 25.54 18.4326C22.228 17.1022 20.8768 13.8206 21.232 10.9182V10.919ZM21.2 10.8646C22.82 10.5382 24.672 10.1726 26.2936 9.84696C27.7416 11.8982 28.1544 15.8126 25.5688 18.5142C21.4768 16.9262 20.8464 12.6926 21.2 10.8646ZM21.0544 10.7206L26.3624 9.68857C27.788 11.5886 28.5384 15.4782 25.6224 18.695C21.872 17.291 20.632 13.6374 21.0544 10.7198V10.7206ZM22.012 7.04616C22.1064 7.07096 22.2 7.09976 22.2944 7.15577C21.7424 8.56936 22.0032 9.28056 22.82 9.51017C22.5288 9.72297 22.3 9.96937 22.208 10.2894C20.2192 10.791 19.64 10.4734 19.328 10.0118C19.1416 9.73496 19.2448 9.57817 19.4104 9.40697C19.608 9.20216 19.6704 9.32856 19.8952 9.43096C20.2656 9.59736 20.728 9.50136 21.1752 9.44697C21.2504 9.41576 21.2488 9.39256 21.1696 9.37737C20.6736 9.44777 20.1672 9.49736 19.7792 9.22777C19.516 9.01577 19.5272 8.77577 19.7392 8.56377C21.0168 8.78137 21.7 8.17736 22.012 7.04616ZM22.3696 10.275L24.9112 9.76057C24.4368 9.06056 22.54 9.46937 22.3696 10.275ZM20.8312 10.6902C20.6904 11.8342 20.7544 13.0654 21.1192 14.2846C20.8408 14.279 20.5952 14.1566 20.3192 14.2806C20.2216 14.3246 20.1352 14.4046 20.0664 14.555C20.0128 14.7662 19.672 14.7662 19.5176 14.7902C19.4144 14.0006 19.1584 13.2974 18.9704 12.5782C18.7728 11.911 19.2904 11.0286 19.6016 10.4662C19.9632 10.6182 20.376 10.6886 20.8312 10.6902ZM20.1408 14.7046C20.2496 14.467 20.4448 14.3582 20.7008 14.4166C20.8616 14.439 21.036 14.4606 21.1968 14.4822C21.3816 14.9598 21.5944 15.4446 21.8872 15.9062C21.612 16.023 21.4744 16.4462 21.0888 16.2494C20.9032 16.1334 20.7168 16.0222 20.5264 15.931C20.3184 15.8302 20.0224 15.7942 19.8896 15.595C19.8536 15.531 19.8408 15.4774 19.976 15.495C20.1184 15.5238 20.3104 15.4662 20.4424 15.3606C20.824 15.0566 20.4744 14.7246 20.1408 14.7046ZM21.0464 16.4006C20.28 16.9414 19.9064 17.5974 19.9256 18.3686C20.9192 18.0078 22.0392 17.9582 23.1864 18.1526C23.176 17.911 23.1672 17.6326 23.1576 17.3902C22.7136 16.9798 22.3376 16.5646 22.008 16.0838C21.7128 16.1502 21.4464 16.6758 21.0464 16.4006ZM21.92 35.6038C21.752 35.7998 21.592 36.0062 21.4488 36.2278C21.056 36.2278 20.6384 36.2182 20.2456 36.2182C20.4728 35.8062 20.7496 35.4294 21.116 35.1182C21.4168 35.1854 21.708 35.3342 21.92 35.6038ZM22.292 35.4662C21.928 35.783 21.6704 36.1814 21.4584 36.5758L23.8344 36.6038C23.956 35.8622 22.8344 35.5382 22.292 35.4662ZM24.3896 29.9326C24.9416 30.2766 25.4408 30.6734 25.46 31.2502C25.4672 31.4926 25.384 31.7158 25.292 31.9358C25.044 32.5262 24.6944 33.087 24.3616 33.6422C24.1856 33.8758 24.0552 33.9998 23.8048 34.159C23.18 34.5574 22.4808 34.871 21.9976 35.439C21.7928 35.275 21.5744 35.1022 21.2904 34.9646C21.6936 34.5582 22.224 34.199 22.84 33.8718C23.1496 33.6958 23.3792 33.4534 23.5296 33.1454L24.3216 31.7438C24.44 31.5326 24.544 31.3502 24.588 31.107C24.66 30.7102 24.5624 30.3518 24.3896 29.9326ZM24.9792 20.3766C25.2512 21.231 25.3352 22.0774 25.312 22.9318C25.3904 23.0158 25.4584 23.1542 25.488 23.2382C26.4336 23.707 27.192 24.2582 27.96 24.8542L27.9712 23.5518C28.2144 23.7662 28.312 23.8894 28.4568 24.1798C29.5384 26.1566 31.6848 26.7334 32.7352 25.6814C32.224 25.7566 31.6584 25.8654 31.2504 25.4038C32.5424 25.4062 33.1912 24.4726 33.2664 22.707C33.2768 22.4934 33.252 22.2534 33.384 22.071C32.844 22.0254 33.3016 23.399 32.2384 23.6046C33.2664 23.0622 32.968 21.8702 32.5232 21.0494C32.3392 20.7094 32.1192 20.3774 31.8704 20.0526C31.6224 19.731 31.3904 19.4846 31.2392 19.1006C30.872 19.5886 31.7272 20.4174 32.024 20.763L32.056 20.8686C31.536 20.3198 31.0312 19.7262 30.6152 19.0926C29.9104 18.0158 29.7784 16.9966 30.0992 16.023C29.0552 16.3694 28.7872 17.663 28.8704 19.3878C28.44 18.967 28.2912 18.3382 28.3368 17.567C27.8888 18.4094 27.772 19.2126 28.1448 19.911C28.6152 20.7966 29.7568 21.6982 30.372 22.4782C30.6552 22.7918 30.5328 23.019 30.188 23.1542C29.5656 23.3982 28.972 23.239 28.3896 22.887C27.3648 22.2622 26.512 21.4486 25.6648 20.7822C25.4528 20.6158 25.2104 20.4982 24.9792 20.3766ZM24.728 22.8166C24.884 22.7758 25.0736 22.7798 25.192 22.8486C25.2632 21.9926 25.1152 21.1206 24.8064 20.3126C24.6784 20.2366 24.5216 20.1734 24.3928 20.1206C24.6848 21.0078 24.7968 21.935 24.728 22.8166ZM25.3048 23.8006C26.1912 24.3222 27.1072 24.8054 27.8808 25.6606C27.9448 25.459 27.9784 25.2526 27.9448 25.0382C27.1904 24.3862 26.3616 23.9302 25.4968 23.4318C25.4976 23.5982 25.4144 23.691 25.3048 23.8006ZM22.2912 21.1582C22.352 21.4054 22.3944 21.6462 22.3856 21.8926C22.5408 21.8606 22.7056 21.8782 22.8368 21.9486C22.8872 21.5934 22.8368 21.2446 22.7048 20.9006C22.5824 20.9894 22.4264 21.0822 22.2912 21.1582ZM21.3736 21.6174C21.6544 21.5102 21.8864 21.3614 22.1488 21.2398C22.2368 21.4638 22.2512 21.6702 22.244 21.9198C21.9464 21.8046 21.6712 21.7326 21.3736 21.6174ZM22.3024 22.9534C22.172 24.0166 22.3992 24.8382 22.9224 25.4598C23.0688 25.4718 23.1952 25.487 23.3424 25.4998C23.3488 25.3886 23.3568 25.2774 23.364 25.167C22.8976 24.743 22.748 24.0678 22.772 22.9798C22.6136 23.0206 22.4312 23.0262 22.3024 22.9534ZM24.6848 23.8702C24.6336 24.9686 24.7112 25.9822 25.4904 26.4302L25.7424 26.3422C25.7432 26.2302 25.7608 26.1486 25.7624 26.0366C25.1264 25.6278 25.1144 24.8158 25.1144 23.9054C24.9768 23.9334 24.812 23.9166 24.6848 23.8702ZM22.8808 22.9046C22.84 23.8574 22.9464 24.6774 23.524 25.0806L23.4712 25.6334C23.2704 25.639 23.0616 25.6214 22.8616 25.627C22.1456 24.847 22.0616 23.8822 22.1896 22.8622C22.104 22.7822 22.0336 22.6782 22.0016 22.5822C21.3872 22.3614 20.784 22.1934 20.1696 22.0094L19.8912 22.2126L19.896 22.739L19.4464 23.3118V26.2718C19.9024 26.3278 20.4672 26.2894 21.048 26.2398C21.0904 25.8782 20.9336 25.6142 20.7632 25.395C20.7096 25.347 20.744 25.2566 20.8608 25.355C21.2752 25.7366 21.3808 26.7334 21.5112 27.3014C21.5512 27.4758 21.5968 27.6694 21.6664 27.8334C21.7832 28.103 21.9784 28.2998 22.2248 28.451C22.4632 28.5966 22.728 28.711 22.9736 28.8446C23.3336 29.0406 23.692 29.2454 24.048 29.4622C24.3112 29.6222 24.5568 29.791 24.7976 29.9822C24.9496 30.1022 25.108 30.2478 25.2984 30.4822C25.4576 30.6782 25.584 30.8534 25.636 31.1062C25.6808 31.315 25.66 31.523 25.5496 31.7286C25.288 32.3486 24.9312 32.9486 24.5752 33.5478C24.4104 33.8278 24.308 33.9998 24.0408 34.1918C23.4928 34.5862 22.8464 34.8158 22.3832 35.3094C22.9752 35.4006 23.5088 35.6534 23.8896 36.083C24.2288 35.5118 24.7016 35.3854 25.196 35.9582C25.632 35.4838 25.4696 34.9798 25.4816 34.5518C25.4864 34.3598 25.5304 34.2774 25.636 34.1246C25.7008 34.0454 25.7464 34.0622 25.6888 34.1406C25.6072 34.2782 25.5816 34.4342 25.612 34.6094C25.6448 34.7926 25.6736 34.7798 25.7544 34.6358L26.1128 33.9958C26.7624 32.9414 27.4032 31.8854 28.0864 30.8534C28.176 30.7174 28.2656 30.543 28.208 30.3822C28.1816 30.3102 28.152 30.2374 28.1256 30.1646C28.0312 29.9094 28.0504 29.879 27.7752 29.7694C27.1976 29.5406 26.8344 29.3934 26.5488 28.9182C26.3056 28.5158 26.3504 28.2094 26.584 27.819C26.9736 27.1638 27.4584 26.4726 27.8248 25.8022C27.4768 25.3894 26.6864 24.703 25.2512 23.9302C25.1912 24.7918 25.3048 25.6582 25.8632 25.9062C25.8656 26.0894 25.8752 26.2534 25.8768 26.4374C25.7424 26.4982 25.632 26.5278 25.4976 26.5894C24.788 26.1718 24.4304 25.363 24.5872 23.819C24.5104 23.7486 24.4112 23.6142 24.376 23.523C23.8736 23.2838 23.3832 23.099 22.8808 22.9046ZM24.9304 22.915C25.1744 22.915 25.3744 23.1142 25.3744 23.3582C25.3744 23.603 25.1744 23.8006 24.9304 23.8006C24.6848 23.8006 24.4864 23.603 24.4864 23.3582C24.4864 23.1142 24.6848 22.915 24.9304 22.915ZM23.1344 22.3734C23.1472 22.5446 23.1032 22.6782 23.012 22.7974C23.4768 22.9726 23.9208 23.1518 24.3728 23.3534C24.3592 23.1822 24.4352 23.0742 24.5408 22.955C24.0848 22.7702 23.5888 22.559 23.1344 22.3734ZM22.8176 20.8134C22.9424 21.2046 22.9856 21.595 22.9288 22.0254C22.9752 22.0734 23.0512 22.1358 23.0704 22.1982C23.6016 22.3982 24.0848 22.5822 24.6 22.8302C24.6536 22.1014 24.656 21.4046 24.4248 20.6758C24.3168 20.3366 24.2248 20.0054 23.8408 19.8862C23.5296 20.231 23.1936 20.5462 22.8168 20.8126L22.8176 20.8134ZM19.8504 26.5118C19.9104 26.5678 19.9464 26.6582 19.98 26.7422C20.0304 26.875 20.0704 26.9982 20.1688 26.9726C20.4632 26.9006 20.7584 26.8318 21.068 26.803C21.164 26.7982 21.1936 26.7598 21.1912 26.7054L21.168 26.523C21.16 26.4334 21.104 26.427 21.0464 26.4222L19.8504 26.5118ZM22.5656 22.0238C22.7992 22.0238 22.9896 22.2126 22.9896 22.4462C22.9896 22.679 22.7992 22.8686 22.5656 22.8686C22.332 22.8686 22.1416 22.679 22.1416 22.4462C22.1416 22.2126 22.332 22.023 22.5656 22.023V22.0238ZM20.4728 21.9358C20.7032 21.8798 20.928 21.811 21.1408 21.7182C21.4608 21.827 21.8384 21.9326 22.1584 22.0422C22.0648 22.1582 22.0032 22.2822 21.9944 22.435C21.4952 22.2638 20.972 22.1078 20.4728 21.9358ZM19.8648 20.1502L19.8728 21.8774C20.7808 21.7542 21.9768 21.2566 22.9024 20.5318C23.3344 20.1934 24.0976 19.571 24.0544 18.9486C24.0328 18.6334 23.7624 18.5278 23.3744 18.4398C23.1848 18.3966 22.9944 18.3686 22.8264 18.3662C22.3856 19.0222 21.7256 19.227 20.9768 19.2478L19.8648 20.1502ZM19.8296 18.615L19.852 19.9318C20.2384 19.6654 20.6016 19.3854 20.9144 19.0742C21.4704 19.0662 21.9816 18.9518 22.3984 18.6158C22.4688 18.5582 22.6448 18.4254 22.6144 18.3222C22.5584 18.1246 21.4656 18.1982 21.3104 18.2126C20.8048 18.2598 20.3096 18.387 19.8296 18.615ZM20.2016 15.9958C20.3136 16.0182 20.432 16.0526 20.5328 16.1326C19.844 16.5766 19.44 17.3814 19.276 18.5166L18.9656 18.5126C19.0456 17.499 19.3704 16.6342 20.2016 15.9958ZM20.6136 16.1726C20.064 16.5734 19.6944 17.1478 19.5064 17.8958C19.3648 18.4558 19.3944 18.9998 19.3944 19.5734V23.0926C19.5096 22.9806 19.664 22.7966 19.7408 22.6462L19.72 19.5022C19.7176 19.1022 19.7008 18.7022 19.7504 18.3054C19.8496 17.5214 20.1624 16.8838 20.884 16.3134C20.8168 16.243 20.7184 16.2022 20.6136 16.1726ZM17.856 20.543H19.2472C19.2616 23.451 19.3 26.383 19.316 29.2918C19.3184 29.6502 19.3304 30.0094 19.2968 30.367C19.232 31.0606 19.0344 31.651 18.7368 32.163C18.2656 31.711 18.0584 30.9494 17.9968 30.1158C17.9696 29.7606 17.9736 29.403 17.9696 29.047L17.856 20.543ZM19.236 19.231V19.8646C18.784 19.851 18.7944 19.2566 19.236 19.231ZM17.8664 19.2918V19.9134C18.3648 19.9342 18.4192 19.303 17.8664 19.2918ZM17.864 18.699L19.2464 18.679V19.0854C18.6608 19.1622 18.5768 19.9278 19.2464 20.039V20.3974L17.852 20.407V20.0774C18.504 20.023 18.6216 19.1758 17.864 19.1174V18.699ZM12.5456 26.267C12.492 26.3358 12.4208 26.3942 12.34 26.4462L12.6776 26.5974L12.7816 26.4134L12.5456 26.267ZM10.2592 27.4302L10.2696 27.6134C10.8952 27.6734 11.5224 27.7318 12.148 27.791L12.2192 27.5782C11.932 27.2582 11.8576 26.8966 11.9632 26.495C11.8328 26.4582 11.7104 26.411 11.6344 26.3062C11.2824 26.7918 10.8144 27.1486 10.2584 27.4302H10.2592ZM11.5368 26.0174C11.3008 26.5158 10.876 26.9406 10.176 27.2574C9.684 27.2718 9.3696 27.535 9.08 27.8326C8.9712 27.8166 8.8904 27.7686 8.82 27.7102C8.7 27.611 8.7288 27.5742 8.816 27.4606C9.496 26.5846 10.3424 25.9966 11.5368 26.0174ZM12.0712 25.5014C12.3064 25.5014 12.4976 25.6918 12.4976 25.927C12.4976 26.1622 12.3064 26.3534 12.0712 26.3534C11.8344 26.3534 11.644 26.1622 11.644 25.927C11.644 25.6918 11.8344 25.5014 12.0712 25.5014ZM12.1128 26.5414C12.0736 26.6822 12.0672 26.8078 12.0768 26.9526L15.0888 28.0198L14.0272 28.6758L15.3992 28.5278L16.3184 29.8846L16.0432 28.259L17.1808 27.6238L15.856 27.6894L15.16 26.5974L15.2464 27.6238L12.1128 26.5414ZM14.8208 21.6806L13.12 23.9678L12.7392 23.9422L15.3696 19.4942C15.4952 19.7974 15.6728 20.099 15.9072 20.3478C15.5184 20.4766 15.1744 20.6942 14.872 20.9958C14.8096 21.207 14.7976 21.4382 14.8216 21.6814L14.8208 21.6806ZM12.1224 24.879L12.3912 24.9806L13.0504 24.0974L12.6616 24.063L12.1224 24.879ZM1.932 21.083C2.3544 21.115 2.7736 21.2118 3.1464 21.4246C3.2648 21.2846 3.376 21.1422 3.492 21.0006C3.5224 20.963 3.576 20.9094 3.6088 20.8534C3.6728 20.743 3.5944 20.6822 3.58 20.5758C3.5672 20.4798 3.6 20.3958 3.6888 20.327C3.804 20.2374 3.9512 20.215 4.0744 20.131C4.1824 20.0574 4.2888 19.955 4.3944 19.8294C4.6232 19.551 4.868 19.2398 5.0968 18.9614C5.3216 18.6862 5.5768 18.6206 5.932 18.579C6.244 18.543 6.5584 18.531 6.9016 18.5422C7.2264 18.5534 7.4392 18.6342 7.6872 18.8382L8.2296 18.0086C7.9944 17.7118 7.6864 17.4422 7.0496 17.2966C6.6392 17.203 6.2376 17.259 6.2992 17.7974C6.3144 17.8502 6.3088 17.8878 6.2952 17.9094C6.2344 18.003 6.1776 17.7958 6.1672 17.7622C6.1432 17.6806 6.1288 17.599 6.1128 17.5182C5.0112 18.1446 3.9 18.7406 2.8352 19.5006C2.5552 19.7006 2.1592 20.123 2.6336 20.3966C2.7088 20.4238 2.7 20.4726 2.6096 20.4558C2.4776 20.4206 2.3664 20.3654 2.2872 20.2782C2.1376 20.5286 2.0208 20.7982 1.932 21.083ZM1.8704 21.2854C1.616 21.7134 1.46 22.1574 1.3384 22.6078C2.0944 22.3902 2.6352 22.2934 3.0472 21.6262C2.7472 21.327 2.3144 21.2942 1.8704 21.2854ZM2.0344 25.1174C2.4528 24.8902 2.8776 24.6838 3.3144 24.515C3.4664 24.603 3.632 24.6918 3.7576 24.8334C3.2472 25.3966 2.7144 25.979 2.204 26.5422C2.1072 26.0982 2.0528 25.6214 2.0344 25.1174ZM9.4656 20.7358C9.5344 20.3718 9.6576 20.0694 9.8472 19.767C11.5192 19.3782 13.304 19.2126 15.2376 19.4486L12.0064 24.8462C11.6064 24.7166 11.1864 24.5742 10.7856 24.4438C10.9128 24.1718 11.0864 23.991 11.3936 23.9182C11.7864 23.8238 11.7264 23.7006 11.3248 23.787C11.0968 23.8366 10.8144 24.0054 10.4608 24.5742C10.3792 24.707 10.3672 24.7902 10.1928 24.8166H9.6984C9.4992 24.8166 9.3968 24.7982 9.2728 24.6366L7.5352 22.3782C7.4448 21.8614 7.2696 21.2742 6.9112 20.955C6.4552 20.547 5.9632 20.6958 5.5832 21.0718C5.1032 21.5486 4.6992 22.1102 4.3192 22.6998C4.248 22.5942 4.264 22.4918 4.3032 22.3822C4.3176 22.3438 4.3272 22.307 4.3104 22.2982C4.2696 22.2766 4.2 22.4078 4.1824 22.4454C4.064 22.7214 4.2736 22.9934 4.3024 23.3118C4.3296 23.6046 4.2144 23.7678 4.0472 23.8854C3.6376 23.183 3.0912 23.8238 3.2008 24.3942C2.8008 24.5462 2.4008 24.7214 1.9992 24.9358C1.9504 24.6478 1.9136 24.3598 1.9656 24.0718C2.0584 24.1526 2.156 24.2118 2.26 24.2318C2.3256 24.2446 2.3752 24.2558 2.4104 24.2542C2.4904 24.2518 2.4976 24.2142 2.4576 24.1822C2.4272 24.1582 2.364 24.1494 2.2992 24.1222C2.1392 24.0566 2.0808 23.9014 2.0568 23.743C1.9848 23.2494 2.4224 22.7006 2.7576 22.239C3.4952 21.223 4.2648 20.2462 5.044 19.335C5.0784 19.4734 5.164 19.587 5.2792 19.6654C5.4576 19.787 5.4632 19.6974 5.3528 19.583C5.2688 19.495 5.1992 19.391 5.1992 19.2622C5.2096 19.143 5.2456 19.0526 5.2984 18.9822C5.4536 18.7742 5.804 18.7302 6.0424 18.7246C6.48 18.715 6.964 18.6686 7.332 18.8262C7.5408 18.915 7.7504 19.1142 7.9624 19.3398C8.3952 19.803 8.8144 20.4278 9.092 20.8038C9.788 21.0942 10.2952 21.7014 10.176 22.5758C10.124 22.9582 10.1816 22.999 10.2768 22.5822C10.432 21.8958 10.1744 21.2382 9.4656 20.7358ZM8.8064 20.0894C8.9584 20.2942 9.0432 20.5358 9.3 20.6318C9.404 20.3126 9.536 20.059 9.676 19.8246C9.3744 19.8958 9.084 19.983 8.8064 20.0894ZM8.4504 19.6542C8.5224 19.7518 8.5928 19.8502 8.664 19.9478C10.732 19.2926 12.96 19.0854 15.3256 19.2686L15.2344 18.8526C13.5592 18.6262 9.9192 18.9614 8.4504 19.6542ZM8.0304 18.6718C7.976 18.7694 7.9128 18.8822 7.8416 18.979C8.0224 19.1926 8.1672 19.3326 8.3376 19.5206C10.4832 18.8222 12.7832 18.5686 15.2312 18.6918C15.22 18.3942 15.2392 18.0934 15.316 17.7958C12.824 17.6894 10.3912 17.8686 8.0304 18.6718ZM14.8624 21.859C14.8896 21.9918 14.9296 22.1158 14.9744 22.2302L12.5504 25.6006C12.4776 25.5022 12.3824 25.4302 12.2744 25.379C13.1384 24.2014 13.9984 23.0366 14.8632 21.859H14.8624ZM12.9064 26.6494L13.348 26.8102C13.7504 26.1118 14.664 25.707 15.3744 25.0294C15.96 24.4398 16.4624 23.8054 16.5592 22.9526C16.4536 22.6718 16.2808 22.5358 16.0624 22.4966C15.7128 23.7622 14.768 24.6326 13.82 25.4622C13.4088 25.8222 13.0312 26.1942 12.9064 26.6494ZM15.0024 21.1534C14.9704 21.4574 14.9224 21.7534 15.1424 22.1982C15.6832 22.1126 16.2416 22.2414 16.8416 23.0238C16.9392 22.8526 16.988 22.6502 16.9296 22.3806C16.3528 21.7838 15.7056 21.3854 15.0016 21.1526L15.0024 21.1534ZM17.724 23.803L17.7472 26.3062C16.6184 26.2438 15.5552 26.0934 14.628 25.8438C15.156 25.4198 15.692 24.9934 16.1256 24.491C16.516 24.5198 16.9152 24.5206 17.3216 24.503C17.34 24.1038 17.488 23.8902 17.724 23.803ZM17.7 22.1102L17.7176 23.563C17.448 23.6606 17.2632 23.8982 17.164 24.275C16.8664 24.3382 16.568 24.3414 16.2712 24.3102C16.4416 23.9382 16.6232 23.567 16.6976 23.1782L16.9016 23.231C17.0352 22.979 17.1312 22.723 17.0936 22.455C17.3128 22.3734 17.5128 22.2542 17.7008 22.111L17.7 22.1102ZM15.0872 21.0078C15.2992 20.7822 15.576 20.579 16.0848 20.4478C16.4528 21.107 16.8464 21.7358 17.7008 21.8302C17.5664 22.0974 17.3368 22.2006 17.0936 22.2798C16.4376 21.7374 15.7736 21.2694 15.0872 21.0078ZM16.8784 21.2814C17.1136 21.5694 17.416 21.655 17.7008 21.6614C17.6944 21.1878 17.6944 20.6918 17.6888 20.219C17.3744 20.491 17.1128 20.8998 16.8784 21.2814ZM16.2384 20.359C16.3584 20.7174 16.5424 20.9678 16.7552 21.1702C17.0528 20.7438 17.3496 20.315 17.6784 19.999L17.6624 18.523L18.7944 18.5126C18.8504 17.963 19.028 17.4294 19.2408 16.9422C17.9304 17.5974 16.828 19.0734 16.2384 20.359ZM18.3224 17.3702C17.4424 18.1262 16.6896 19.1062 16.0656 20.283C15.728 19.9646 15.4984 19.4758 15.4272 18.9262C15.276 17.7558 16.0352 15.9078 17.5024 16.1822C17.9928 16.275 18.3648 16.675 18.3224 17.3702ZM18.4112 16.7934C18.4488 16.9358 18.4736 17.1062 18.4752 17.2534C18.6672 17.119 18.8968 16.9638 19.1528 16.8534C18.9432 16.6838 18.6784 16.7126 18.4112 16.7934ZM19.5344 15.6494L19.72 15.6302C19.8056 15.7526 19.9352 15.8494 20.0768 15.9398C19.7808 16.2078 19.5408 16.4974 19.3248 16.7974C19.0824 16.543 18.7624 16.5798 18.4392 16.6254C18.8864 16.3526 19.2888 16.051 19.5344 15.6494ZM17.6144 15.8206L19.3984 15.6166C19.152 15.9686 18.756 16.2614 18.3192 16.5374C18.1072 16.2574 17.864 16.0942 17.5752 16.043C17.5888 15.9766 17.6016 15.8854 17.6144 15.8206ZM16.6528 15.9046C16.916 15.875 17.1728 15.8534 17.4432 15.8262C17.4352 15.8998 17.4224 15.9478 17.4152 16.0222C17.1512 16.0102 16.9048 16.0614 16.664 16.1342L16.6528 15.9046ZM11.344 7.81256C11.1984 8.26857 11.624 8.30857 11.94 8.36216C14.696 8.83016 16.5976 10.6182 16.708 15.1158C16.9512 15.0966 17.2216 15.0806 17.4648 15.0614C17.4472 14.3414 17.4728 13.6614 16.8616 13.3662C17.0632 13.3022 17.3416 13.551 17.4176 13.2822C17.1984 13.1726 17.1504 12.8854 17.1016 12.6286C17.0144 12.1694 16.6264 12.1606 16.6088 11.9726C16.7744 12.0958 16.9368 12.059 17.052 11.9694C16.7304 11.8518 16.68 11.395 16.5552 11.1294C16.4816 10.9726 16.3568 10.8358 16.0496 10.7222C16.1248 10.6966 16.1912 10.6942 16.316 10.707C15.888 10.0454 15.312 9.43417 14.5664 8.93896C14.3888 8.82137 14.1944 8.67177 13.9848 8.60697C13.7856 8.54457 13.6136 8.62056 13.4184 8.58937C13.5448 8.54136 13.6832 8.51176 13.732 8.35736C13.3616 8.18616 13.016 8.19417 12.6656 8.17177C12.7008 8.10217 12.7248 8.03017 12.7232 7.95097C12.2728 7.79497 11.8136 7.75097 11.344 7.81256ZM10.5624 15.6254C10.4328 15.9814 10.1296 16.2286 10.0424 16.5838C10.4024 16.615 10.9128 16.2254 11.2312 16.4598C10.728 16.4934 10.2016 16.6958 9.7224 16.9926C9.7248 16.6726 10.0096 16.4598 10.0184 16.2118C9.2104 16.3702 8.7928 17.7646 8.168 18.4614C10.3304 17.723 12.7936 17.5174 15.3624 17.6206C15.6072 16.9766 15.964 16.4334 16.5464 16.1726C16.5392 16.0886 16.536 16.0126 16.528 15.9278C14.3536 16.035 12.3984 15.8878 10.5624 15.6254ZM9.448 14.2158C9.3072 14.4694 9.156 14.7518 9.016 15.007C11.5976 15.9318 15.124 16.0766 19.7664 15.403C19.9552 15.3726 20.2912 15.355 20.4016 15.1982C20.4656 15.107 20.4616 15.0326 20.3912 14.955C20.2368 14.7838 19.9376 14.867 19.7392 14.8974C16.5352 15.4782 12.3896 15.5182 9.448 14.2158ZM8.9152 15.1894C9.152 15.1894 9.344 15.3814 9.344 15.6174C9.344 15.8534 9.152 16.0446 8.9152 16.0446C8.6792 16.0446 8.4872 15.8526 8.4872 15.6174C8.4872 15.3806 8.6792 15.1894 8.9152 15.1894ZM9.6 13.1094C9.8976 13.3974 9.9704 13.8278 9.9736 14.2558C10.2376 14.3678 10.5512 14.4558 10.8264 14.5454C11.1704 13.9646 11.4352 13.2982 11.2184 12.6094C10.7944 12.7982 10.3744 12.8182 9.9848 12.7774C9.8728 12.8766 9.712 13.0094 9.6 13.1094ZM8.8816 13.0854C8.932 13.0174 8.9816 12.9342 9.0072 12.8502C9.6472 13.083 9.8912 13.607 9.8472 14.2062C9.74 14.1806 9.6072 14.1158 9.5168 14.0798C9.4752 13.5998 9.2248 13.2886 8.8816 13.0854ZM8.484 13.2638C8.5984 13.2534 8.704 13.2054 8.8104 13.1462C8.9208 13.1966 9.0208 13.2782 9.0984 13.3734C8.9928 13.9598 8.7144 14.2486 8.3728 14.3606C8.2216 14.4094 8.0632 14.443 7.9104 14.4846C7.8456 14.5022 7.7896 14.5182 7.7232 14.4926C7.6384 14.4598 7.5952 14.379 7.6152 14.311C7.636 14.2414 7.7136 14.223 7.772 14.1926C8.1352 14.0046 8.3488 13.6662 8.484 13.2638ZM11.7344 3.71177V4.31497H14.0992C14.1128 4.09817 14.0256 3.89257 13.8912 3.71256L11.7344 3.71177ZM11.616 3.26296V4.76376C11.152 4.77737 10.828 4.39017 10.8672 3.94137C10.9024 3.53337 11.184 3.24136 11.616 3.26136V3.26296ZM8.348 13.2502C8.2888 13.5734 8.0624 13.8046 7.8192 13.9982C7.728 13.9646 7.6712 13.9078 7.6552 13.8222C7.8664 13.6502 8.084 13.4438 8.252 13.2094C8.2784 13.2278 8.3168 13.2382 8.348 13.2502ZM6.4264 12.4526C6.3608 12.5118 6.424 12.5918 6.496 12.5406C6.592 12.4478 6.6896 12.3966 6.7984 12.483C6.8608 12.5326 6.8976 12.6006 6.892 12.683C6.8864 12.763 6.86 12.8166 6.7872 12.8486C6.728 12.875 6.6584 12.8846 6.584 12.8862C6.5184 12.8918 6.5216 12.9566 6.592 12.963C6.6656 12.9654 6.736 12.9574 6.8 12.931C6.8784 12.8966 6.936 12.8358 6.9664 12.755C7.0056 12.6478 6.9632 12.5358 6.8976 12.4494C6.7752 12.2894 6.6096 12.3358 6.4264 12.4526ZM9.1432 8.62696C8.9608 8.63656 8.8432 8.54777 8.7224 8.42857C8.6776 8.38377 8.6704 8.34617 8.7144 8.32057C9.1944 8.04296 9.5856 7.92216 10.1384 7.86937C10.2312 7.86456 10.3104 7.89416 10.3544 7.95176C10.4344 8.05576 10.4216 8.15497 10.3624 8.21897C10.3216 8.26297 10.2584 8.29017 10.1888 8.29257C9.9728 8.30057 9.7848 8.37737 9.5968 8.45817C9.4504 8.52217 9.3032 8.58856 9.1432 8.62696ZM10.1384 7.75016C9.908 7.56137 9.3696 7.49896 9.0672 7.29736C8.9072 7.24296 8.8888 7.35576 8.968 7.45736C9.0776 7.59656 9.3008 7.73096 9.528 7.86456L10.1384 7.75016ZM8.548 10.1054C8.6848 10.0542 8.8144 9.96937 8.88 9.82297C8.9248 9.94057 9.028 10.031 9.18 10.0502C8.8896 10.3886 8.6984 10.3038 8.548 10.1054ZM13.3368 3.52856H11.7624V3.01337C11.2136 3.00136 10.8968 3.19576 10.7512 3.58136C10.64 3.88136 10.6448 4.20216 10.7752 4.49656C10.9112 4.80056 11.1936 5.00776 11.7624 5.02137V4.52937H13.232C13.3616 4.77416 13.5 5.01657 13.7456 5.21497C13.772 5.23497 13.7816 5.27097 13.7736 5.32537C13.5528 5.78297 13.3256 6.23736 13.024 6.64856C12.972 6.69337 12.984 6.72056 13.0592 6.73177C13.704 6.77816 14.3672 6.80296 15.0704 6.77976C15.1288 6.77016 15.1744 6.79576 15.2088 6.85576C15.3032 7.08536 15.4536 7.33577 15.5928 7.54137C15.5584 7.58056 15.4912 7.62216 15.4656 7.64056C15.6576 7.97656 15.7832 8.42057 15.8472 8.80136C16.1672 8.95576 16.4632 9.16936 16.7488 9.40377L16.8552 9.34537C17.2624 9.86377 17.66 10.3742 18.2408 10.8878C18.3232 10.9614 18.3528 11.0502 18.3752 11.1566C18.4176 11.3526 18.4656 11.5486 18.5208 11.7422C18.7392 12.5182 19.3392 14.1102 19.348 14.8182C18.7776 14.9062 18.2224 14.999 17.6624 15.0366C17.6352 14.5214 17.5816 13.9614 17.3456 13.5854C17.4608 13.4926 17.54 13.3758 17.6096 13.271C17.1776 12.923 17.4112 12.5342 17.0816 12.1942C17.1456 12.115 17.1936 12.0278 17.2344 11.9382C16.768 11.699 16.892 11.0006 16.5 10.7542C16.02 9.68857 14.8944 8.91897 13.912 8.37896C13.9304 8.33576 13.9296 8.29096 13.9256 8.24776C13.604 8.11016 13.2584 8.06056 12.9136 8.00536C12.92 7.94137 12.8944 7.87177 12.8752 7.80696C12.3048 7.60936 11.8328 7.60376 11.2944 7.63256C11.1384 7.42776 10.9424 7.26376 10.7288 7.16856C10.3048 6.97736 9.7632 7.04536 9.452 6.64056C9.3136 6.71096 9.216 6.78056 9.1664 6.84456C9.0632 6.97976 9.3096 7.21177 9.3824 7.32457C9.1944 7.27177 8.9848 7.18296 8.8432 7.09896C8.7352 7.26776 8.7448 7.39497 8.8112 7.50536C8.8912 7.63816 9.0848 7.73976 9.2256 7.86296C8.932 8.00776 8.6088 8.18696 8.3144 8.33256C8.4504 8.51176 8.6152 8.66296 8.8384 8.78057C8.1768 9.54296 7.5056 10.2902 6.8448 11.0526C6.6408 11.1526 6.492 11.3886 6.4368 11.6046C6.1704 11.8366 6.0104 12.0686 5.8384 12.3534C5.7648 12.5102 5.764 12.6854 5.884 12.8926C5.9736 13.047 5.9696 13.0766 5.94 13.259C5.8976 13.5126 5.9528 13.7614 6.1064 14.0046C6.2584 14.2446 6.436 14.2782 6.6928 14.2046C6.8368 14.163 6.9432 14.0782 6.9776 13.899C7.024 13.6542 7.1608 13.427 7.5256 13.2398C7.5576 13.2782 7.7344 13.475 7.7344 13.5238C7.7344 13.5894 7.4928 13.7558 7.4408 13.8006L7.5624 14.0062C7.5936 14.059 7.6056 14.0894 7.5552 14.1342C7.4064 14.2662 7.3688 14.307 7.448 14.4678C7.532 14.6358 7.66 14.7086 7.8672 14.639C8.1152 14.5566 8.3744 14.5574 8.6224 14.4174C8.9808 14.2142 9.0984 13.9246 9.196 13.5318C9.4008 13.759 9.408 13.9862 9.1216 14.4414C9.0176 14.6334 8.9048 14.8262 8.8072 15.019C8.4176 15.1198 8.1984 15.535 8.38 15.9014C8.472 16.087 8.6624 16.2158 8.9096 16.2038C9.1 16.195 9.2472 16.115 9.3456 15.999C9.472 15.8494 9.5184 15.635 9.4736 15.407L10.2704 15.615C10.2112 15.7326 10.1504 15.8502 10.0904 15.967C9.6288 16.0446 9.2456 16.399 9.0256 16.795C8.8336 17.139 8.6096 17.475 8.356 17.8022C7.9432 17.3462 7.5296 17.2334 7.116 17.107C6.844 17.0254 6.6744 16.9966 6.4104 17.1294C5.108 17.7806 3.8056 18.5854 2.5024 19.5126C2.384 19.6198 2.2848 19.7542 2.1992 19.9142C2.0952 20.1102 2.0096 20.3262 1.9168 20.5302C1.6128 21.2022 1.352 22.0134 1.0328 22.7318C1.1112 22.9558 1.1896 23.1454 1.268 23.3686L1.9688 23.1334C1.9072 23.355 1.7984 23.5998 1.7744 23.8254C1.7112 24.4078 1.912 25.6518 2.0232 26.8526C2.1688 26.991 2.3016 27.1422 2.4472 27.2814L4.3888 25.1134C4.2048 24.9086 4.0024 24.7318 3.7936 24.5678C3.6728 24.4734 3.5568 24.4678 3.444 24.3894C3.332 24.311 3.3616 24.1374 3.3944 24.0238C3.4984 23.6662 3.8928 23.6958 4.0208 24.1862C4.288 23.9894 4.4776 23.679 4.4744 23.3102C4.4728 23.1942 4.4328 23.0766 4.4424 22.9614C4.4472 22.8974 4.472 22.835 4.5352 22.7806C4.7864 22.3582 5.2544 21.5558 5.7488 21.1582C5.92 21.019 6.0952 20.9294 6.2656 20.9222C6.644 20.9022 6.912 21.1742 7.0872 21.4854C7.2448 21.7638 7.328 22.0998 7.3784 22.4614C7.9368 23.2486 8.4888 24.0366 9.1656 24.783C9.3456 24.983 9.4192 25.067 9.7128 25.0614L10.3048 25.0518C10.3464 25.043 10.3808 25.0294 10.4088 25.0126C10.5144 24.9502 10.6072 24.8038 10.6872 24.7118C10.7192 24.663 10.7808 24.6542 10.8472 24.6494C11.3968 24.8598 11.84 24.9694 12.028 25.0702C12.1784 25.1502 12.1104 25.239 12.0304 25.3518C11.7472 25.3742 11.5872 25.5254 11.5184 25.7702C10.316 25.8278 9.3808 26.4582 8.62 27.4294C8.5104 27.5646 8.4272 27.6454 8.5832 27.7694C8.7536 27.9054 8.9272 28.0158 9.14 28.063C9.3256 27.8166 9.7424 27.371 10.116 27.487C10.1224 27.5662 10.1256 27.687 10.132 27.7654L12.324 27.9806L12.3864 27.6966L13.0656 27.899C13.1168 27.7974 13.1824 27.6454 13.2336 27.5438L14.6856 28.0398L13.6288 28.8118L15.2992 28.7486L16.4784 30.3134L16.2616 28.3454L17.5952 27.5014L15.9752 27.4902L15.0432 26.2422L15.0568 27.375L13.5496 26.8478C13.7064 26.5006 14.1024 26.2182 14.488 25.9926C15.496 26.2406 16.5952 26.423 17.74 26.4998C17.7736 27.5118 17.7752 28.5446 17.8096 29.5574C17.8448 30.6294 17.9424 31.6414 18.7256 32.467C19.372 31.7422 19.4824 30.507 19.4824 29.5814V26.5198C19.7008 26.5014 19.7928 26.635 19.8984 26.8814C19.9848 27.0734 19.9864 27.2526 20.2536 27.1406C20.5184 27.0294 20.8032 26.9646 21.112 26.9606C21.2672 26.9598 21.292 27.0142 21.32 27.1742C21.3776 27.5102 21.4488 27.8118 21.608 28.087C21.692 28.2326 21.7808 28.3374 21.9144 28.439C22.2824 28.719 22.7696 28.9086 23.2376 29.191C23.8184 29.539 24.4368 30.0918 24.4368 30.827C24.4368 30.9182 24.4264 31.0126 24.4056 31.1102C24.3856 31.2102 24.3456 31.3206 24.2936 31.4342C24.14 31.7774 23.8816 32.159 23.712 32.447C23.6456 32.5454 23.58 32.643 23.5168 32.739C23.4112 32.8974 23.3368 33.0582 23.2432 33.2206C23.1704 33.3486 23.0848 33.4454 22.928 33.5606C22.5496 33.8366 22.0872 34.1078 21.656 34.3862C21.2096 34.6878 20.848 35.0566 20.4992 35.4686C20.2968 35.7086 20.1232 35.975 19.9464 36.2534L19.96 36.815H21.1664L21.1736 37.2022H24.0456C24.0344 36.9894 24.0344 36.779 24.0552 36.5782C24.0896 36.2582 24.1864 35.7542 24.6264 35.8142C24.8552 35.8462 25.0768 36.0566 25.176 36.3022C25.4344 35.9846 25.6304 35.6262 25.704 35.2414C25.7624 34.9414 25.82 34.7646 26.0064 34.4894C26.6296 33.5734 27.1864 32.611 27.8184 31.6774C27.9976 31.4254 28.1664 31.1734 28.3432 30.9206C28.412 30.8214 28.4776 30.7478 28.492 30.6246C28.5232 30.3646 28.3128 29.9502 28.1848 29.7334C28.0816 29.5654 27.9048 29.5846 27.7368 29.543C27.5576 29.4982 27.4032 29.4358 27.2672 29.3582C26.928 29.1646 26.5472 28.811 26.5808 28.3878C26.5952 28.199 26.6624 28.0422 26.7472 27.8758C27.0616 27.2566 27.552 26.7054 27.9096 26.0902C28.1256 25.719 28.1152 25.4742 28.1336 25.0638C28.1472 24.7326 28.1584 24.4006 28.1376 24.0678C28.1384 24.0142 28.1616 23.9918 28.216 24.0358C28.2544 24.0662 28.276 24.1262 28.2944 24.1918C28.3904 24.5398 28.6352 24.8406 28.8672 25.1118C29.18 25.4758 29.5544 25.7518 29.9792 25.9758C31.0968 26.5654 32.4368 26.6606 33.1312 25.3494C32.6584 25.5342 32.1536 25.583 31.7608 25.5414C32.3544 25.3998 32.8544 24.9734 33.1264 24.4166C33.32 24.0222 33.364 23.5686 33.3952 23.135C33.4232 22.7422 33.432 22.3454 33.6384 21.999C33.4464 21.8574 33.2624 21.8462 33.0824 21.9214C32.7856 20.547 31.5288 19.7614 31.3208 18.7574C31.1728 18.839 31.0584 18.9734 30.968 19.1454C29.944 18.111 29.9376 16.499 30.496 15.6422C29.164 16.0502 28.7272 16.9718 28.6904 18.8766C28.5144 18.5454 28.504 17.9006 28.5296 17.1254C27.968 17.5374 27.7776 18.3982 27.7776 19.0302C27.7776 19.4894 27.9096 19.8678 28.116 20.2086C28.4344 20.7326 28.8664 21.1606 29.2904 21.5958C29.404 21.7134 30.26 22.5334 30.26 22.7494C30.26 22.9198 30.1176 22.9726 29.9864 23.0134C29.46 23.1766 28.9528 23.0342 28.4608 22.7214C28.1784 22.5414 27.9104 22.3222 27.64 22.123C27.2432 21.831 26.868 21.5174 26.488 21.2078C26.2184 20.9878 25.9776 20.7246 25.696 20.5206C25.2376 20.1894 24.528 19.943 23.956 19.7326C24.2416 19.2102 24.2928 18.8902 24.1904 18.6726C24.076 18.427 23.7632 18.3126 23.3728 18.1902C23.3632 17.9982 23.3448 17.7518 23.336 17.5606C23.9936 18.0942 24.8264 18.5726 25.696 18.9654C27.1912 17.2134 27.9168 15.3814 27.848 13.4854C27.8 12.1654 27.3672 10.8158 26.5424 9.43896C26.0608 9.50296 25.584 9.58056 25.1024 9.67097C24.8328 9.32296 24.4016 9.27496 23.9928 9.25896C24.0152 9.13896 24.0008 9.00296 23.972 8.88297C23.828 8.91656 23.4616 8.95496 23.372 8.78376C23.2616 8.57257 23.732 8.08776 23.848 7.92936C23.9968 7.73017 24.1456 7.56457 24.2024 7.31737C24.2488 7.11417 24.2344 6.90137 24.1688 6.68297C24.0696 6.35817 23.8792 6.10056 23.6736 5.83577C23.436 5.53176 23.1792 5.24056 22.908 4.95896C22.3744 5.07096 21.88 5.26456 21.38 5.48696C21.2672 5.40696 21.156 5.29896 21.0768 5.20136C20.6632 5.75337 20.2216 6.29976 19.7312 6.83496C19.8496 6.87656 20.0424 6.85896 20.1944 6.86696C20.1568 7.03497 20.0576 7.20377 19.9528 7.35497C19.8936 7.42377 19.888 7.51097 19.9392 7.55497C19.9872 7.58937 19.9944 7.63417 19.9736 7.68697C19.9552 7.72297 19.9456 7.72776 19.9272 7.76456C19.9032 7.82856 19.9136 7.89817 19.9808 7.94297C20.0208 8.01257 19.9664 8.06697 19.9568 8.15097C19.9488 8.22777 19.9728 8.21576 19.9248 8.27416C19.9016 8.30056 19.8872 8.33337 19.8888 8.36617C19.8888 8.44057 19.8568 8.43657 19.7872 8.44137C19.7112 8.44456 19.6528 8.46137 19.608 8.48697C19.424 8.59337 19.4536 8.94697 19.4824 9.11977C18.9344 8.73897 18.3008 8.43496 17.8792 8.05336L18.0952 7.89496C17.9184 7.75096 17.7296 7.62457 17.5192 7.52776C17.4616 7.23496 17.3752 7.00296 17.2832 6.77976C17.2136 6.81976 17.1352 6.87577 17.0664 6.91497C16.98 6.73017 16.904 6.52856 16.8184 6.34376C16.936 6.21176 17.0544 6.07176 17.172 5.92776C16.6008 5.86617 16.448 5.50217 16.5824 4.93096C19.8752 4.93096 23.1448 4.82696 26.4384 4.82696C26.8632 4.82217 27.2544 4.79256 27.624 4.71256C28.1288 4.60296 28.592 4.39816 29.0464 4.03097C28.8056 3.84936 28.5536 3.69016 28.2856 3.56696C28.0768 3.47096 27.8568 3.39737 27.624 3.35257C26.816 3.23017 25.9728 3.25657 25.156 3.24777C23.1624 3.22617 21.1696 3.20056 19.176 3.17976C18.3144 3.16536 17.4392 3.15576 16.576 3.14216L16.58 2.74456C16.5824 2.51016 16.544 2.39896 16.748 2.25176C16.856 2.17336 16.9904 2.11816 17.144 2.08536L16.4232 1.26856C16.0632 1.53256 15.6048 2.03016 15.5032 2.99337C15.2248 2.96696 15.116 2.78616 15.0032 2.67096C14.8976 2.56296 14.7576 2.49416 14.6416 2.63656C14.592 2.69976 14.5536 2.78376 14.5184 2.84136C14.0096 2.94216 13.4592 3.09736 13.3368 3.52856ZM15.0808 22.371C15.3768 22.2958 15.6624 22.291 15.9208 22.4406C15.8168 23.0806 15.4488 23.587 15.0232 24.0662C14.6808 24.4534 14.3248 24.7798 13.94 25.1222C13.5256 25.491 13.1368 25.8718 12.864 26.3062C12.7832 26.2398 12.7096 26.1742 12.6272 26.1094C12.6608 25.995 12.6536 25.8766 12.6328 25.7518L15.0808 22.371ZM25.5232 28.3654C25.7432 28.8294 25.8672 29.2822 26.5664 29.799L26.4584 30.0206C27.3864 29.7566 27.5528 30.5166 27.0664 31.0686C27.7912 30.6382 27.5 29.7966 26.7184 29.7358C26.1184 29.3422 25.8424 28.8478 25.5232 28.3654ZM11.0216 9.71416C11.248 9.71416 11.432 9.89737 11.432 10.123C11.432 10.3494 11.248 10.5326 11.0216 10.5326C10.796 10.5326 10.6128 10.3486 10.6128 10.123C10.6128 10.0182 10.652 9.92137 10.7176 9.84937C10.7896 9.78057 10.8896 9.72937 11.0008 9.71496H11.0216V9.71416ZM10.5152 9.88616C10.5808 9.74697 10.7024 9.63817 10.8512 9.59097C10.4464 9.17657 10.0384 8.82376 9.5768 8.61497C9.3408 8.65736 9.18 8.75177 9.0808 8.89017C9.6104 9.11417 10.0896 9.44137 10.5152 9.88616ZM10.4672 10.1878C10.464 10.167 10.4624 10.1446 10.4624 10.1238C10.4624 10.087 10.4664 10.0518 10.4728 10.0174C10.028 9.53257 9.4456 9.16136 8.9608 9.00296L8.5704 9.39017C8.4456 9.51416 8.1432 9.71576 8.2584 9.91976C8.3224 10.035 8.504 10.0974 8.644 9.95177C8.796 9.79416 8.868 9.57016 9.012 9.50056C9.1832 9.41737 9.3832 9.47097 9.6576 9.67737C9.7632 9.75657 9.7528 9.75896 9.6472 9.79496C9.4776 9.85336 9.372 9.98377 9.2664 10.115C8.848 10.6438 8.4728 10.2846 8.1144 9.91737C7.7544 10.2742 7.3992 10.6494 7.072 11.1142C7.54 11.347 8.004 11.6318 8.4512 12.1254C9.1016 11.4878 9.8152 10.8254 10.4672 10.1878ZM11.112 10.6742C11.0824 10.679 11.0528 10.6814 11.0216 10.6814C10.9784 10.6814 10.9368 10.6766 10.896 10.667C10.268 11.299 9.62 11.9374 8.992 12.5686C9.016 12.6182 9.0248 12.6678 9.0192 12.7182C9.1704 12.8014 9.3376 12.8934 9.4896 12.9974L9.8296 12.691C9.7632 12.651 9.7232 12.6014 9.7072 12.5414C10.5 12.6782 11.1616 12.5974 11.5864 12.1206C11.6136 11.5318 11.4184 11.071 11.112 10.6742ZM11.536 10.3422C11.48 10.4742 11.3744 10.5798 11.2424 10.6366C11.5456 11.0326 11.6728 11.5326 11.7192 12.075C11.8392 12.043 11.9664 12.0134 12.092 11.9846C12.1184 11.4222 11.9952 10.8542 11.536 10.3422ZM11.5744 10.0358C11.5792 10.0638 11.5816 10.0934 11.5816 10.1238C11.5816 10.1582 11.5784 10.1926 11.572 10.227C11.9896 10.6438 12.2312 11.231 12.216 11.9638C12.3216 12.0142 12.4352 12.0654 12.54 12.1158C11.9416 12.0358 11.5864 12.195 11.4016 12.4814C11.6016 13.2142 11.3968 13.9254 11.0264 14.6038C12.7896 15.1078 14.6536 15.2414 16.5512 15.1254C16.4952 11.8838 15.392 9.28696 12.3256 8.64217C12.2648 9.22616 11.9592 9.65417 11.5744 10.0358ZM11.1888 9.59017C11.2176 9.59817 11.2448 9.61016 11.2712 9.62216C11.3992 9.68056 11.5032 9.78456 11.5432 9.90617C11.932 9.53016 12.196 9.10936 12.2136 8.59177C12.0552 8.50377 11.892 8.47177 11.724 8.49417C11.6784 8.91016 11.5696 9.21897 11.1888 9.59017ZM11.0216 9.56456H11.0304C11.3984 9.27896 11.5656 8.90057 11.62 8.47017C11.588 8.43257 11.5496 8.41417 11.5088 8.40136C11.4192 8.37497 11.3176 8.38136 11.2448 8.29576C11.1648 8.20136 11.16 8.05176 11.1424 7.88617C11.1328 7.80056 11.1128 7.71657 11.0496 7.63577C10.8936 7.43497 10.6416 7.31097 10.3576 7.24377C10.0392 7.17417 9.776 7.07416 9.5768 6.93496C9.5144 6.89176 9.4408 6.81336 9.3608 6.86937C9.3344 6.88776 9.3184 6.91816 9.3208 6.95576C9.3272 7.02296 9.3952 7.08617 9.4408 7.13017C9.6256 7.31017 9.9048 7.44776 10.176 7.58776C10.3424 7.66697 10.512 7.89977 10.5232 8.09657C10.5312 8.23097 10.4656 8.35017 10.2736 8.39097C10.0256 8.38057 9.8736 8.45496 9.7632 8.56697C10.2232 8.83416 10.6312 9.17656 11.0064 9.56456H11.0216ZM7.9896 12.443C8.0592 12.3214 8.1728 12.2294 8.3096 12.1894C7.8792 11.727 7.4208 11.4318 6.9736 11.2342C6.816 11.2974 6.7312 11.4102 6.66 11.5342C7.0352 11.6542 7.4992 11.9862 7.9896 12.443ZM7.9272 12.7974C7.9232 12.7686 7.92 12.739 7.92 12.7094C7.92 12.659 7.9264 12.6102 7.94 12.5638C7.584 12.2518 7.172 11.9238 6.7968 11.7254C6.7016 11.675 6.6192 11.6518 6.5408 11.7398C6.3648 11.9382 6.1824 12.1094 6.0976 12.2814C5.98 12.519 5.98 12.739 6.112 12.9374C6.2216 13.103 6.1704 13.0494 6.1496 13.2318C6.1216 13.4718 6.1088 13.7102 6.3032 13.9494C6.3816 14.0454 6.484 14.075 6.5784 14.0574C6.7072 14.0326 6.8232 13.9198 6.8424 13.7654C6.8856 13.4166 7.188 13.2534 7.48 13.0742C7.6304 12.9822 7.7808 12.8902 7.9272 12.7974ZM8.1752 13.1694C8.0824 13.111 8.0072 13.0254 7.964 12.923C7.8448 12.9982 7.7304 13.0798 7.632 13.1838C7.7144 13.2718 7.7856 13.3654 7.8504 13.4622C7.9808 13.3918 8.0792 13.2814 8.1752 13.1694ZM8.6664 12.2054C8.7528 12.2406 8.8288 12.2966 8.8864 12.3686C8.9104 12.3942 8.9304 12.4222 8.948 12.4526L10.772 10.623C10.6504 10.5614 10.5536 10.4574 10.5024 10.3302L10.484 10.291L8.6128 12.1782C8.6312 12.1862 8.6488 12.1958 8.6664 12.2054ZM8.7552 12.4046C8.836 12.4806 8.8864 12.5894 8.8864 12.7094C8.8864 12.9414 8.6968 13.1318 8.4632 13.1318L8.4312 13.1302H8.428C8.2168 13.1078 8.052 12.9302 8.052 12.7126C8.052 12.4806 8.2392 12.2934 8.4712 12.2934C8.58 12.2934 8.6792 12.335 8.7536 12.403L8.7552 12.4046ZM12.1128 27.0862C12.1064 27.2094 12.1832 27.3382 12.2856 27.4622C12.5256 27.5486 12.7656 27.635 13.0072 27.7206L13.1184 27.4566L12.1128 27.0862ZM34.5136 0.439765V23.555H34.5104C34.4504 27.9454 32.5248 31.9246 29.4496 34.8198C26.324 37.7638 22.0096 39.5878 17.2576 39.5878H17.2568C12.5048 39.5878 8.1904 37.7638 5.064 34.8198C1.9888 31.9238 0.0632 27.9454 0.0024 23.5558H0V0.438965L34.5136 0.439765Z" fill="#231F20"/>
</g>
<path fill-rule="evenodd" clip-rule="evenodd" d="M1.27588 22.7929L1.37988 23.1209C1.62228 23.0385 1.86388 22.9569 2.10628 22.8761C2.26468 22.7113 2.39028 22.5473 2.50148 22.3833C2.09348 22.5193 1.68388 22.6553 1.27588 22.7929ZM2.17428 26.7921L2.44628 27.0569L4.14628 25.1465L3.88148 24.9049C3.88148 24.9049 2.17428 26.8001 2.17428 26.7921ZM21.3543 36.7425V37.0337H23.8583V36.7337L21.3543 36.7425ZM21.3495 36.3665L21.2591 36.6385H20.1687V36.3577L21.3495 36.3665Z" fill="#FCB813"/>
</g>
<defs>
<clipPath id="clip0_728_196">
<rect width="104.8" height="40" fill="white"/>
</clipPath>
</defs>
</svg>
